<svg width="105" height="124" viewBox="0 0 105 124" fill="none" xmlns="http://www.w3.org/2000/svg">
<g filter="url(#filter0_d)">
<path d="M91.1703 115.19H12.9749C9.89238 115.19 7.39336 112.691 7.39336 109.608L4 43.749C4 40.6664 6.49902 38.1675 9.58151 38.1675H94.5634C97.6461 38.1675 100.145 40.6666 100.145 43.749L96.7516 109.608C96.7518 112.691 94.2528 115.19 91.1703 115.19Z" fill="url(#paint0_linear)"/>
<path d="M94.5636 115.189H9.58151C6.49902 115.189 4 112.69 4 109.607C4 108.051 4.64285 106.563 5.77642 105.496L47.7381 66.0079C50.1734 63.7163 53.9717 63.7163 56.407 66.0079L98.3687 105.496C99.5025 106.563 100.145 108.051 100.145 109.607C100.145 112.69 97.6461 115.189 94.5636 115.189Z" fill="url(#paint1_linear)"/>
<path d="M4.79838 95.1459V109.607C4.79838 112.69 7.25593 115.189 10.2873 115.189H93.8578C96.8892 115.189 99.3468 112.69 99.3468 109.607V95.1459H4.79838Z" fill="url(#paint2_linear)"/>
<path d="M4 43.7492V109.608C4 112.691 6.49902 115.19 9.58151 115.19H13.1935V38.1675H9.58151C6.49902 38.1675 4 40.6666 4 43.7492H4Z" fill="url(#paint3_linear)"/>
<path d="M5.96494 47.8595L77.8998 115.189H94.5636C97.6463 115.189 100.145 112.69 100.145 109.608V43.7484C100.145 40.6657 97.6461 38.5439 94.5636 38.5439H9.5815C6.49901 38.5438 4.18851 40.6657 4.18851 43.7484C4.18851 45.305 4.83137 46.7926 5.96494 47.8595Z" fill="url(#paint4_linear)"/>
<path d="M100.145 43.7484V109.608C100.145 112.69 97.6461 115.189 94.5636 115.189H90.9516V38.1667H94.5636C97.6461 38.1667 100.145 40.6657 100.145 43.7484Z" fill="url(#paint5_linear)"/>
<path d="M94.5636 38.5438H90.9516V72.6651H100.145V44.1255C100.145 41.0428 97.6461 38.5438 94.5636 38.5438Z" fill="url(#paint6_linear)"/>
<path d="M9.58151 38.5438H13.1935V72.6651H4V44.1255C4 41.0428 6.49902 38.5438 9.58151 38.5438Z" fill="url(#paint7_linear)"/>
<path d="M94.5636 38.1675H9.58151C6.49902 38.1675 4 40.6666 4 43.7492C4 45.306 4.64285 46.2281 5.77642 47.2949L47.7381 86.7832C50.1734 89.0749 53.9717 89.0749 56.407 86.7832L98.3687 47.2947C99.5023 46.2279 100.145 45.3058 100.145 43.7492C100.145 40.6666 97.6461 38.1675 94.5636 38.1675Z" fill="url(#paint8_linear)"/>
<path d="M94.4472 38.1675C94.2249 38.1675 94.0111 38.2524 93.8494 38.4045L56.4071 73.64C53.9718 75.9317 50.1735 75.9317 47.7382 73.64L10.2961 38.4047C10.1343 38.2524 9.92034 38.1675 9.69826 38.1675C6.85029 38.1675 4.37295 40.2562 4.03927 43.0845C3.82794 44.876 4.48248 46.6425 5.77667 47.8603L47.7384 87.3486C50.1737 89.6403 53.972 89.6403 56.4073 87.3486L98.369 47.8603C99.6632 46.6423 100.318 44.876 100.106 43.0845C99.7725 40.2562 97.2952 38.1675 94.4472 38.1675Z" fill="url(#paint9_linear)"/>
<path d="M33.1514 18.0463H29.8624V14.7575C29.8624 13.3758 28.7423 12.2559 27.3608 12.2559C25.9794 12.2559 24.8591 13.376 24.8591 14.7575V18.0465H21.5699C20.1883 18.0465 19.0682 19.1666 19.0682 20.5482C19.0682 21.9299 20.1883 23.05 21.5699 23.05H24.8591V26.3392C24.8591 27.7208 25.9792 28.8409 27.3608 28.8409C28.7425 28.8409 29.8624 27.7208 29.8624 26.3392V23.05H33.1514C34.5331 23.05 35.6532 21.9299 35.6532 20.5482C35.6532 19.1666 34.5331 18.0463 33.1514 18.0463Z" fill="#F1F1FA"/>
<path d="M86.2624 60.9185H82.9734V57.6294C82.9734 56.2478 81.8533 55.1279 80.4716 55.1279C79.09 55.1279 77.9699 56.248 77.9699 57.6294V60.9185H74.6807C73.2991 60.9185 72.1791 62.0386 72.1791 63.42C72.1791 64.8015 73.2992 65.9218 74.6807 65.9218H77.9699V69.211C77.9699 70.5926 79.09 71.7125 80.4716 71.7125C81.8533 71.7125 82.9734 70.5924 82.9734 69.211V65.9218H86.2624C87.644 65.9218 88.7641 64.8017 88.7641 63.42C88.7641 62.0384 87.6439 60.9185 86.2624 60.9185Z" fill="#DED8F8"/>
<path d="M84.8664 33.4233C86.0789 33.4233 87.1419 32.514 87.3362 31.3192C87.509 30.2565 86.9536 29.1694 85.9912 28.6871C85.1373 28.2591 84.0918 28.3598 83.3358 28.9435C82.5056 29.5844 82.1653 30.7112 82.4932 31.7057C82.8265 32.7163 83.8008 33.4233 84.8664 33.4233Z" fill="#CAC5EF"/>
<path d="M53.0065 11.6872C52.074 11.1182 50.8612 11.222 50.0394 11.9422C49.267 12.6192 48.9946 13.7419 49.3567 14.6999C49.72 15.661 50.6662 16.3189 51.6959 16.3189C52.8508 16.3189 53.8772 15.4927 54.1346 14.3707C54.3703 13.3427 53.9073 12.2369 53.0065 11.6872Z" fill="#DED8F8"/>
<path d="M65.2705 72.4767C64.4014 71.882 63.2134 71.9007 62.3672 72.5303C61.5123 73.1664 61.1457 74.3113 61.4825 75.324C61.8194 76.3371 62.7882 77.0408 63.8574 77.0408C64.9939 77.0408 66.0073 76.2439 66.2835 75.1446C66.5352 74.144 66.1213 73.0589 65.2705 72.4767Z" fill="#F1F1FA"/>
<path d="M50.3466 43.3452C49.3422 42.3408 49.3422 40.7125 50.3466 39.7081L89.3016 0.753281C90.306 -0.251109 91.9343 -0.251109 92.9387 0.753281C93.9431 1.75767 93.9431 3.38604 92.9387 4.39043L53.9838 43.3452C52.9794 44.3496 51.351 44.3496 50.3466 43.3452Z" fill="#2973F4"/>
<path d="M92.9385 0.753279L50.3466 43.3452C51.351 44.3496 52.9794 44.3496 53.9838 43.3452L92.9385 4.39043C93.9429 3.38604 93.9429 1.7575 92.9385 0.753279Z" fill="#425796"/>
<path d="M55.3882 57.2162C55.3882 57.2162 46.199 68.0389 40.8846 83.5035C40.4322 84.8199 39.0146 85.5369 37.6863 85.1212C34.6273 84.1639 28.8241 81.3539 20.581 73.1108C12.3381 64.8679 9.52789 59.0647 8.57078 56.0056C8.15507 54.677 8.87195 53.2596 10.1885 52.8073C25.6531 47.4928 36.4758 38.3036 36.4758 38.3036L47.1445 46.5475L55.3882 57.2162Z" fill="#F4D844"/>
<path d="M40.8846 83.5035C46.199 68.0388 55.3882 57.2162 55.3882 57.2162L47.1443 46.5475L20.581 73.1108C28.8239 81.3537 34.6272 84.1639 37.6863 85.1212C39.0148 85.5368 40.4323 84.8199 40.8846 83.5035Z" fill="#ECBD2C"/>
<path d="M30.4464 81.431L34.4257 77.4517C35.4301 76.4473 35.4301 74.8189 34.4257 73.8145C33.4213 72.8102 31.7929 72.8102 30.7886 73.8145L26.2857 78.3174C27.7897 79.553 29.1772 80.5784 30.4464 81.431Z" fill="#E28023"/>
<path d="M19.8773 59.2661C18.8729 58.2617 17.2445 58.2617 16.2402 59.2661L12.2609 63.2454C13.1136 64.5146 14.1388 65.9019 15.3744 67.4061L19.8773 62.9033C20.8815 61.8989 20.8815 60.2705 19.8773 59.2661Z" fill="#ECBD2C"/>
<path d="M20.581 73.1108C21.2108 73.7406 21.8246 74.335 22.4258 74.903L32.0009 65.3279C33.0053 64.3235 33.0053 62.6952 32.0009 61.6908C30.9965 60.6864 29.3681 60.6864 28.3637 61.6908L18.7887 71.2659C19.3569 71.8672 19.9512 72.481 20.581 73.1108Z" fill="#ECBD2C"/>
<path d="M32.0009 61.6909L20.581 73.1108C21.2108 73.7406 21.8246 74.335 22.4258 74.903L32.0009 65.3279C33.0053 64.3237 33.0053 62.6952 32.0009 61.6909Z" fill="#E28023"/>
<path d="M55.3852 57.2425L45.9173 47.7746L36.4493 38.3066L43.3249 31.431C44.3018 30.4541 45.8857 30.4541 46.8628 31.431L62.261 46.8292C63.2379 47.8061 63.2379 49.3902 62.261 50.3671L55.3852 57.2425Z" fill="#2973F4"/>
<path d="M62.2112 46.7796L54.5618 39.13L45.9173 47.7745L55.3854 57.2425L62.2113 50.4166C63.2156 49.4123 63.2156 47.784 62.2112 46.7796Z" fill="#425796"/>
</g>
<defs>
<filter id="filter0_d" x="0" y="-1.14441e-05" width="104.145" height="123.19" filterUnits="userSpaceOnUse" color-interpolation-filters="sRGB">
<feFlood flood-opacity="0" result="BackgroundImageFix"/>
<feColorMatrix in="SourceAlpha" type="matrix" values="0 0 0 0 0 0 0 0 0 0 0 0 0 0 0 0 0 0 127 0"/>
<feOffset dy="4"/>
<feGaussianBlur stdDeviation="2"/>
<feColorMatrix type="matrix" values="0 0 0 0 0 0 0 0 0 0 0 0 0 0 0 0 0 0 0.25 0"/>
<feBlend mode="normal" in2="BackgroundImageFix" result="effect1_dropShadow"/>
<feBlend mode="normal" in="SourceGraphic" in2="effect1_dropShadow" result="shape"/>
</filter>
<linearGradient id="paint0_linear" x1="45.2808" y1="58.4557" x2="75.6885" y2="123.735" gradientUnits="userSpaceOnUse">
<stop stop-color="#E3E5E4"/>
<stop offset="1" stop-color="#CBD0E4"/>
</linearGradient>
<linearGradient id="paint1_linear" x1="43.0317" y1="100.553" x2="58.7373" y2="116.259" gradientUnits="userSpaceOnUse">
<stop stop-color="#EBEFF0"/>
<stop offset="1" stop-color="#E3E5E4"/>
</linearGradient>
<linearGradient id="paint2_linear" x1="52.0726" y1="103.089" x2="52.0726" y2="119.217" gradientUnits="userSpaceOnUse">
<stop stop-color="#CBD0E4" stop-opacity="0"/>
<stop offset="1" stop-color="#6A7D83"/>
</linearGradient>
<linearGradient id="paint3_linear" x1="7.26762" y1="76.6788" x2="14.9383" y2="76.6788" gradientUnits="userSpaceOnUse">
<stop stop-color="#FF637B"/>
<stop offset="1" stop-color="#F90217"/>
</linearGradient>
<linearGradient id="paint4_linear" x1="83.1706" y1="76.4992" x2="71.3566" y2="64.0569" gradientUnits="userSpaceOnUse">
<stop stop-color="#CBD0E4" stop-opacity="0"/>
<stop offset="1" stop-color="#6A7D83"/>
</linearGradient>
<linearGradient id="paint5_linear" x1="95.1179" y1="76.6779" x2="101.025" y2="76.6779" gradientUnits="userSpaceOnUse">
<stop stop-color="#FF637B"/>
<stop offset="1" stop-color="#F90217"/>
</linearGradient>
<linearGradient id="paint6_linear" x1="98.4045" y1="60.5685" x2="90.4867" y2="51.6138" gradientUnits="userSpaceOnUse">
<stop stop-color="#F90217" stop-opacity="0"/>
<stop offset="0.2669" stop-color="#E7010F" stop-opacity="0.267"/>
<stop offset="0.7232" stop-color="#CE0004" stop-opacity="0.723"/>
<stop offset="1" stop-color="#C50000"/>
</linearGradient>
<linearGradient id="paint7_linear" x1="5.7406" y1="60.5685" x2="13.6584" y2="51.6138" gradientUnits="userSpaceOnUse">
<stop stop-color="#F90217" stop-opacity="0"/>
<stop offset="0.2669" stop-color="#E7010F" stop-opacity="0.267"/>
<stop offset="0.7232" stop-color="#CE0004" stop-opacity="0.723"/>
<stop offset="1" stop-color="#C50000"/>
</linearGradient>
<linearGradient id="paint8_linear" x1="48.1902" y1="38.7978" x2="69.2635" y2="64.3667" gradientUnits="userSpaceOnUse">
<stop stop-color="#EBEFF0"/>
<stop offset="1" stop-color="#E3E5E4"/>
</linearGradient>
<linearGradient id="paint9_linear" x1="53.2087" y1="45.6812" x2="77.5907" y2="86.7785" gradientUnits="userSpaceOnUse">
<stop stop-color="#FF637B"/>
<stop offset="1" stop-color="#F90217"/>
</linearGradient>
</defs>
</svg>
