<svg width="86" height="86" viewBox="0 0 86 86" fill="none" xmlns="http://www.w3.org/2000/svg">
<path d="M24.6987 18.0463H21.4096V14.7575C21.4096 13.3758 20.2895 12.2559 18.9081 12.2559C17.5266 12.2559 16.4063 13.376 16.4063 14.7575V18.0465H13.1171C11.7355 18.0465 10.6154 19.1666 10.6154 20.5482C10.6154 21.9299 11.7355 23.05 13.1171 23.05H16.4063V26.3392C16.4063 27.7208 17.5264 28.8409 18.9081 28.8409C20.2897 28.8409 21.4096 27.7208 21.4096 26.3392V23.05H24.6987C26.0803 23.05 27.2004 21.9299 27.2004 20.5482C27.2004 19.1666 26.0803 18.0463 24.6987 18.0463Z" fill="#F1F1FA"/>
<path d="M77.8096 60.9185H74.5206V57.6294C74.5206 56.2478 73.4005 55.1279 72.0189 55.1279C70.6372 55.1279 69.5171 56.2479 69.5171 57.6294V60.9185H66.2279C64.8463 60.9185 63.7263 62.0386 63.7263 63.42C63.7263 64.8015 64.8464 65.9218 66.2279 65.9218H69.5171V69.211C69.5171 70.5926 70.6372 71.7125 72.0189 71.7125C73.4005 71.7125 74.5206 70.5924 74.5206 69.211V65.9218H77.8096C79.1913 65.9218 80.3114 64.8017 80.3114 63.42C80.3114 62.0384 79.1911 60.9185 77.8096 60.9185V60.9185Z" fill="#DED8F8"/>
<path d="M76.4137 33.4233C77.6262 33.4233 78.6892 32.514 78.8834 31.3192C79.0562 30.2565 78.5009 29.1694 77.5384 28.6871C76.6845 28.259 75.639 28.3598 74.883 28.9435C74.0528 29.5844 73.7125 30.7112 74.0405 31.7057C74.3738 32.7163 75.348 33.4233 76.4137 33.4233Z" fill="#CAC5EF"/>
<path d="M44.5537 11.6872C43.6212 11.1182 42.4084 11.222 41.5866 11.9422C40.8142 12.6192 40.5418 13.7419 40.9039 14.6999C41.2672 15.661 42.2135 16.3189 43.2431 16.3189C44.398 16.3189 45.4244 15.4927 45.6818 14.3707C45.9175 13.3427 45.4545 12.2369 44.5537 11.6872Z" fill="#DED8F8"/>
<path d="M56.8177 72.4767C55.9486 71.882 54.7606 71.9007 53.9144 72.5303C53.0595 73.1664 52.6929 74.3113 53.0297 75.324C53.3667 76.3371 54.3354 77.0408 55.4046 77.0408C56.5411 77.0408 57.5545 76.2439 57.8307 75.1446C58.0824 74.144 57.6686 73.0589 56.8177 72.4767V72.4767Z" fill="#F1F1FA"/>
<path d="M41.8938 43.3452C40.8894 42.3408 40.8894 40.7125 41.8938 39.7081L80.8488 0.753277C81.8532 -0.251113 83.4815 -0.251113 84.4859 0.753277C85.4903 1.75767 85.4903 3.38603 84.4859 4.39042L45.531 43.3452C44.5266 44.3496 42.8982 44.3496 41.8938 43.3452Z" fill="#2973F4"/>
<path d="M84.4857 0.753273L41.8938 43.3452C42.8982 44.3496 44.5266 44.3496 45.531 43.3452L84.4857 4.39042C85.4901 3.38603 85.4901 1.7575 84.4857 0.753273V0.753273Z" fill="#425796"/>
<path d="M46.9354 57.2162C46.9354 57.2162 37.7462 68.0389 32.4318 83.5035C31.9795 84.8199 30.5619 85.5369 29.2335 85.1212C26.1745 84.1639 20.3713 81.3539 12.1282 73.1108C3.88533 64.8679 1.0751 59.0647 0.117995 56.0056C-0.297712 54.677 0.419163 53.2596 1.73571 52.8073C17.2003 47.4928 28.023 38.3036 28.023 38.3036L38.6917 46.5475L46.9354 57.2162Z" fill="#F4D844"/>
<path d="M32.4318 83.5035C37.7463 68.0388 46.9354 57.2162 46.9354 57.2162L38.6915 46.5475L12.1282 73.1108C20.3711 81.3537 26.1744 84.1639 29.2335 85.1212C30.562 85.5367 31.9795 84.8199 32.4318 83.5035V83.5035Z" fill="#ECBD2C"/>
<path d="M21.9937 81.431L25.9729 77.4517C26.9773 76.4473 26.9773 74.8189 25.9729 73.8145C24.9685 72.8102 23.3402 72.8102 22.3358 73.8145L17.8329 78.3174C19.3369 79.553 20.7244 80.5784 21.9937 81.431V81.431Z" fill="#E28023"/>
<path d="M11.4245 59.2661C10.4201 58.2617 8.79175 58.2617 7.78736 59.2661L3.80809 63.2454C4.66081 64.5146 5.68601 65.9019 6.92165 67.4061L11.4245 62.9033C12.4287 61.8989 12.4287 60.2705 11.4245 59.2661Z" fill="#ECBD2C"/>
<path d="M12.1282 73.1108C12.758 73.7406 13.3718 74.335 13.973 74.903L23.5481 65.3279C24.5525 64.3235 24.5525 62.6952 23.5481 61.6908C22.5437 60.6864 20.9153 60.6864 19.9109 61.6908L10.3359 71.2659C10.9041 71.8672 11.4984 72.481 12.1282 73.1108V73.1108Z" fill="#ECBD2C"/>
<path d="M23.5481 61.6909L12.1282 73.1108C12.758 73.7406 13.3718 74.335 13.973 74.903L23.5481 65.3279C24.5525 64.3237 24.5525 62.6952 23.5481 61.6909V61.6909Z" fill="#E28023"/>
<path d="M46.9324 57.2425L37.4645 47.7746L27.9965 38.3066L34.8721 31.431C35.849 30.4541 37.4329 30.4541 38.41 31.431L53.8082 46.8292C54.7851 47.8061 54.7851 49.3902 53.8082 50.3671L46.9324 57.2425Z" fill="#2973F4"/>
<path d="M53.7584 46.7796L46.109 39.13L37.4645 47.7745L46.9326 57.2425L53.7585 50.4166C54.7628 49.4123 54.7628 47.784 53.7584 46.7796Z" fill="#425796"/>
</svg>
