<svg width="540" height="124" viewBox="0 0 540 124" fill="none" xmlns="http://www.w3.org/2000/svg">
<g filter="url(#filter0_di)">
<path d="M158.922 66.3594H148.453C148.453 63.5469 148.167 61.5677 147.594 60.4219C147.073 59.224 146.396 58.2344 145.562 57.4531C144.729 56.8281 143.766 56.3333 142.672 55.9688C141.63 55.6042 140.641 55.3958 139.703 55.3438C137.88 55.3438 136.109 55.7604 134.391 56.5938C132.724 57.375 131.214 58.625 129.859 60.3438C128.453 62.2708 127.333 64.6927 126.5 67.6094C125.667 70.474 125.25 73.3906 125.25 76.3594C125.25 78.2344 125.484 80.5 125.953 83.1562C126.474 85.8125 127.333 88.3906 128.531 90.8906C129.677 93.2344 131.318 95.1875 133.453 96.75C135.589 98.3125 138.245 99.0938 141.422 99.0938C144.026 99.0938 146.344 98.7812 148.375 98.1562V82.7656H136.188V73.625H158.453V103C153.297 106.333 147.073 108 139.781 108C135.458 108 131.682 107.036 128.453 105.109C125.276 103.13 122.672 100.604 120.641 97.5312C118.609 94.5625 117.151 91.2552 116.266 87.6094C115.432 83.9115 115.016 80.1615 115.016 76.3594C115.016 72.5052 115.458 68.8073 116.344 65.2656C117.281 61.724 118.792 58.625 120.875 55.9688C122.906 53.2604 125.484 50.9948 128.609 49.1719C131.734 47.349 135.432 46.4375 139.703 46.4375C142.307 46.4375 144.781 46.9062 147.125 47.8438C149.469 48.7812 151.5 50.0312 153.219 51.5938C154.99 53.1042 156.37 54.9531 157.359 57.1406C158.401 59.3281 158.922 62.401 158.922 66.3594ZM270.875 58.8594H259.703V47.4531H270.875V58.8594ZM270.406 107.062H260.328V64.1719H270.406V107.062ZM365.094 80.8906H380.016C380.016 78.4427 379.573 76.3594 378.688 74.6406C378.167 73.7552 377.438 73.0521 376.5 72.5312C375.615 71.9583 374.625 71.6719 373.531 71.6719C371.292 71.6719 369.286 72.7917 367.516 75.0312C366.318 76.5417 365.51 78.4948 365.094 80.8906ZM365.328 89.3281C365.484 90.0573 365.693 90.8125 365.953 91.5938C366.37 92.7917 367.021 93.9896 367.906 95.1875C368.844 96.3854 369.99 97.4271 371.344 98.3125C371.812 98.5729 372.516 98.8333 373.453 99.0938C374.391 99.3542 375.536 99.4844 376.891 99.4844C378.453 99.4844 380.224 99.224 382.203 98.7031C384.182 98.1302 386.396 97.1146 388.844 95.6562V104.406C385.979 106.073 383.245 107.167 380.641 107.688C378.036 108.156 375.406 108.26 372.75 108C370.458 107.688 368.167 106.984 365.875 105.891C363.635 104.745 361.812 103.417 360.406 101.906C358.792 99.9792 357.438 97.5833 356.344 94.7188C355.25 91.8542 354.703 88.5729 354.703 84.875C354.703 81.75 355.094 78.9115 355.875 76.3594C356.708 73.7552 357.906 71.5156 359.469 69.6406C360.979 67.7656 362.906 66.2292 365.25 65.0312C367.646 63.8333 370.432 63.2344 373.609 63.2344C376.266 63.2344 378.74 63.8073 381.031 64.9531C383.323 66.099 385.12 67.5573 386.422 69.3281C388.766 72.401 389.938 77.4792 389.938 84.5625V89.3281H365.328ZM534.781 72.8438C532.333 72.8438 530.458 73 529.156 73.3125C527.854 73.625 526.63 74.1198 525.484 74.7969C524.286 75.474 523.193 76.3854 522.203 77.5312C521.266 78.6771 520.641 80.0833 520.328 81.75C519.911 83.8854 519.703 86.3333 519.703 89.0938V107.062H509.938V64.1719H519.703V69.0938C520.484 68.0521 521.474 67.1146 522.672 66.2812C525.484 64.3021 529.521 63.2865 534.781 63.2344V72.8438Z" fill="#2973F4"/>
<path d="M216.031 107.062H206.344V83.1562C206.344 81.5417 206.266 79.9792 206.109 78.4688C206.005 76.9062 205.797 75.7344 205.484 74.9531C205.12 74.0156 204.651 73.3906 204.078 73.0781C203.557 72.7135 202.932 72.5312 202.203 72.5312C200.849 72.5312 199.521 73.4167 198.219 75.1875C196.969 76.9062 196.109 79.4583 195.641 82.8438C195.484 83.9375 195.38 84.9271 195.328 85.8125C195.276 86.6458 195.25 87.6354 195.25 88.7812V107.062H185.797V83.1562C185.797 81.5417 185.719 80.0052 185.562 78.5469C185.458 77.0885 185.224 75.8906 184.859 74.9531C184.495 74.0156 184.052 73.3906 183.531 73.0781C183.01 72.7135 182.307 72.5312 181.422 72.5312C180.484 72.5312 179.599 72.8958 178.766 73.625C177.984 74.3542 177.255 75.5521 176.578 77.2188C175.953 78.8854 175.484 80.6562 175.172 82.5312C174.911 84.3542 174.755 86.3333 174.703 88.4688V107.062H165.016V64.1719H174.703V67.375C175.797 66.0208 176.969 65.0052 178.219 64.3281C179.521 63.599 180.771 63.2344 181.969 63.2344C185.719 63.2344 188.635 64.3542 190.719 66.5938C191.552 67.5833 192.229 68.599 192.75 69.6406C193.062 69.1198 193.453 68.5729 193.922 68C196.37 64.8229 199.365 63.2344 202.906 63.2344C206.76 63.2344 209.911 64.5625 212.359 67.2188C214.807 69.875 216.031 73.8594 216.031 79.1719V107.062ZM335.719 66.3594H325.25C325.25 63.5469 324.964 61.5417 324.391 60.3438C323.87 59.1458 323.193 58.1823 322.359 57.4531C320.745 56.0469 318.792 55.3438 316.5 55.3438C314.677 55.3438 312.932 55.7604 311.266 56.5938C309.599 57.375 308.062 58.651 306.656 60.4219C305.25 62.2969 304.13 64.6927 303.297 67.6094C302.464 70.526 302.047 73.4688 302.047 76.4375C302.047 78.3125 302.281 80.5781 302.75 83.2344C303.219 85.8906 304.078 88.4948 305.328 91.0469C306.578 93.3906 308.245 95.3438 310.328 96.9062C312.411 98.4167 315.042 99.1719 318.219 99.1719C320.562 99.1719 322.932 98.7552 325.328 97.9219C327.776 97.0365 330.641 95.4479 333.922 93.1562V103.781C333.609 103.99 332.828 104.406 331.578 105.031C330.38 105.656 329.104 106.177 327.75 106.594C324.312 107.583 320.589 108.078 316.578 108.078C312.255 108.078 308.505 107.141 305.328 105.266C302.151 103.339 299.521 100.839 297.438 97.7656C295.406 94.6927 293.948 91.3333 293.062 87.6875C292.229 83.9896 291.812 80.2396 291.812 76.4375C291.812 72.5833 292.255 68.8854 293.141 65.3438C294.078 61.75 295.589 58.625 297.672 55.9688C299.703 53.2604 302.281 50.9948 305.406 49.1719C308.531 47.349 312.229 46.4375 316.5 46.4375C319.104 46.4375 321.578 46.9062 323.922 47.8438C326.266 48.7812 328.297 50.0312 330.016 51.5938C331.786 53.1042 333.167 54.9531 334.156 57.1406C335.198 59.3281 335.719 62.401 335.719 66.3594ZM465.953 107.062H456.031V80.5C456.031 77.6354 455.458 75.3438 454.312 73.625C453.531 72.5833 452.255 72.0625 450.484 72.0625C448.974 72.0625 447.464 72.9219 445.953 74.6406C444.443 76.3594 443.323 79.0417 442.594 82.6875C442.385 83.5729 442.229 84.4583 442.125 85.3438C442.073 86.2292 442.047 87.2708 442.047 88.4688V107.062H432.203V64.1719H442.047V67.7656C443.036 66.4115 444.391 65.3177 446.109 64.4844C447.828 63.651 449.417 63.2344 450.875 63.2344C455.667 63.2344 459.365 64.5365 461.969 67.1406C464.625 69.849 465.953 73.7292 465.953 78.7812V107.062Z" fill="#FE485F"/>
<path d="M253.844 107.062H243.922V103.859C241.318 106.62 237.281 108 231.812 108C230.667 108 229.312 107.714 227.75 107.141C226.24 106.516 224.938 105.708 223.844 104.719C222.698 103.573 221.812 102.297 221.188 100.891C220.562 99.4323 220.25 97.7917 220.25 95.9688C220.25 92.5833 221.135 89.7188 222.906 87.375C224.729 85.0312 226.917 83.3646 229.469 82.375C231.083 81.75 232.802 81.2812 234.625 80.9688C236.5 80.6562 237.984 80.5 239.078 80.5H243.922V78.4688C243.922 78.1042 243.818 77.4792 243.609 76.5938C243.453 75.6562 243.167 74.8229 242.75 74.0938C242.281 73.3646 241.604 72.7917 240.719 72.375C239.885 71.9062 238.87 71.6719 237.672 71.6719C236.161 71.6719 234.833 72.1146 233.688 73C232.542 73.8333 231.969 75.526 231.969 78.0781H221.266C221.266 75.2656 221.578 73.1042 222.203 71.5938C222.828 70.0833 223.844 68.7292 225.25 67.5312C226.552 66.3333 228.297 65.3177 230.484 64.4844C232.672 63.651 235.068 63.2344 237.672 63.2344C242.984 63.2344 246.995 64.7188 249.703 67.6875C252.464 70.6042 253.844 74.0938 253.844 78.1562V107.062ZM243.922 91.2031V88.5469C243.193 88.5469 242.359 88.5729 241.422 88.625C240.484 88.625 238.948 88.8073 236.812 89.1719C235.25 89.4323 233.818 90.0573 232.516 91.0469C231.057 92.1927 230.328 93.5729 230.328 95.1875C230.328 96.8021 230.745 97.9479 231.578 98.625C232.411 99.25 233.427 99.5625 234.625 99.5625C235.094 99.5625 235.823 99.4844 236.812 99.3281C237.802 99.1198 238.688 98.7552 239.469 98.2344C241.135 97.0885 242.411 95.7083 243.297 94.0938C243.714 93.3646 243.922 92.401 243.922 91.2031ZM350.172 107.062H340.094V47.4531H350.172V107.062ZM480.562 80.8906H495.484C495.484 78.4427 495.042 76.3594 494.156 74.6406C493.635 73.7552 492.906 73.0521 491.969 72.5312C491.083 71.9583 490.094 71.6719 489 71.6719C486.76 71.6719 484.755 72.7917 482.984 75.0312C481.786 76.5417 480.979 78.4948 480.562 80.8906ZM480.797 89.3281C480.953 90.0573 481.161 90.8125 481.422 91.5938C481.839 92.7917 482.49 93.9896 483.375 95.1875C484.312 96.3854 485.458 97.4271 486.812 98.3125C487.281 98.5729 487.984 98.8333 488.922 99.0938C489.859 99.3542 491.005 99.4844 492.359 99.4844C493.922 99.4844 495.693 99.224 497.672 98.7031C499.651 98.1302 501.865 97.1146 504.312 95.6562V104.406C501.448 106.073 498.714 107.167 496.109 107.688C493.505 108.156 490.875 108.26 488.219 108C485.927 107.688 483.635 106.984 481.344 105.891C479.104 104.745 477.281 103.417 475.875 101.906C474.26 99.9792 472.906 97.5833 471.812 94.7188C470.719 91.8542 470.172 88.5729 470.172 84.875C470.172 81.75 470.562 78.9115 471.344 76.3594C472.177 73.7552 473.375 71.5156 474.938 69.6406C476.448 67.7656 478.375 66.2292 480.719 65.0312C483.115 63.8333 485.901 63.2344 489.078 63.2344C491.734 63.2344 494.208 63.8073 496.5 64.9531C498.792 66.099 500.589 67.5573 501.891 69.3281C504.234 72.401 505.406 77.4792 505.406 84.5625V89.3281H480.797Z" fill="#F5BA28"/>
<path d="M287.359 107.062H277.281V47.4531H287.359V107.062ZM426.031 107.062H416.109V103.859C413.505 106.62 409.469 108 404 108C402.854 108 401.5 107.714 399.938 107.141C398.427 106.516 397.125 105.708 396.031 104.719C394.885 103.573 394 102.297 393.375 100.891C392.75 99.4323 392.438 97.7917 392.438 95.9688C392.438 92.5833 393.323 89.7188 395.094 87.375C396.917 85.0312 399.104 83.3646 401.656 82.375C403.271 81.75 404.99 81.2812 406.812 80.9688C408.688 80.6562 410.172 80.5 411.266 80.5H416.109V78.4688C416.109 78.1042 416.005 77.4792 415.797 76.5938C415.641 75.6562 415.354 74.8229 414.938 74.0938C414.469 73.3646 413.792 72.7917 412.906 72.375C412.073 71.9062 411.057 71.6719 409.859 71.6719C408.349 71.6719 407.021 72.1146 405.875 73C404.729 73.8333 404.156 75.526 404.156 78.0781H393.453C393.453 75.2656 393.766 73.1042 394.391 71.5938C395.016 70.0833 396.031 68.7292 397.438 67.5312C398.74 66.3333 400.484 65.3177 402.672 64.4844C404.859 63.651 407.255 63.2344 409.859 63.2344C415.172 63.2344 419.182 64.7188 421.891 67.6875C424.651 70.6042 426.031 74.0938 426.031 78.1562V107.062ZM416.109 91.2031V88.5469C415.38 88.5469 414.547 88.5729 413.609 88.625C412.672 88.625 411.135 88.8073 409 89.1719C407.438 89.4323 406.005 90.0573 404.703 91.0469C403.245 92.1927 402.516 93.5729 402.516 95.1875C402.516 96.8021 402.932 97.9479 403.766 98.625C404.599 99.25 405.615 99.5625 406.812 99.5625C407.281 99.5625 408.01 99.4844 409 99.3281C409.99 99.1198 410.875 98.7552 411.656 98.2344C413.323 97.0885 414.599 95.7083 415.484 94.0938C415.901 93.3646 416.109 92.401 416.109 91.2031Z" fill="#46A956"/>
<path d="M158.922 66.3594V67.3594H159.922V66.3594H158.922ZM148.453 66.3594H147.453V67.3594H148.453V66.3594ZM147.594 60.4219L146.677 60.8206L146.687 60.8451L146.699 60.8691L147.594 60.4219ZM145.562 57.4531L146.246 56.7236L146.206 56.6861L146.162 56.6531L145.562 57.4531ZM142.672 55.9688L142.342 56.9126L142.349 56.9151L142.356 56.9174L142.672 55.9688ZM139.703 55.3438L139.759 54.3453L139.731 54.3438H139.703V55.3438ZM134.391 56.5938L134.815 57.4993L134.827 57.4936L134.391 56.5938ZM129.859 60.3438L129.074 59.7249L129.062 59.7394L129.052 59.7543L129.859 60.3438ZM126.5 67.6094L127.46 67.8887L127.462 67.8841L126.5 67.6094ZM125.953 83.1562L124.968 83.33L124.97 83.3394L124.972 83.3487L125.953 83.1562ZM128.531 90.8906L127.629 91.3228L127.633 91.3298L128.531 90.8906ZM148.375 98.1562L148.669 99.112L149.375 98.8948V98.1562H148.375ZM148.375 82.7656H149.375V81.7656H148.375V82.7656ZM136.188 82.7656H135.188V83.7656H136.188V82.7656ZM136.188 73.625V72.625H135.188V73.625H136.188ZM158.453 73.625H159.453V72.625H158.453V73.625ZM158.453 103L158.996 103.84L159.453 103.544V103H158.453ZM128.453 105.109L127.924 105.958L127.932 105.963L127.941 105.968L128.453 105.109ZM120.641 97.5312L121.475 96.9798L121.47 96.9732L121.466 96.9666L120.641 97.5312ZM116.266 87.6094L115.29 87.8292L115.292 87.8373L115.294 87.8454L116.266 87.6094ZM116.344 65.2656L115.377 65.0097L115.374 65.0231L116.344 65.2656ZM120.875 55.9688L121.662 56.5859L121.669 56.5774L121.675 56.5688L120.875 55.9688ZM153.219 51.5938L152.546 52.3337L152.558 52.3443L152.57 52.3546L153.219 51.5938ZM157.359 57.1406L156.448 57.5528L156.452 57.5617L156.457 57.5706L157.359 57.1406ZM158.922 65.3594H148.453V67.3594H158.922V65.3594ZM149.453 66.3594C149.453 63.5346 149.174 61.347 148.488 59.9747L146.699 60.8691C147.159 61.7884 147.453 63.5591 147.453 66.3594H149.453ZM148.511 60.0231C147.943 58.7181 147.193 57.6105 146.246 56.7236L144.879 58.1827C145.599 58.8582 146.202 59.7298 146.677 60.8206L148.511 60.0231ZM146.162 56.6531C145.235 55.9571 144.173 55.415 142.988 55.0201L142.356 56.9174C143.358 57.2516 144.224 57.6991 144.962 58.2531L146.162 56.6531ZM143.002 55.0249C141.887 54.6346 140.805 54.4034 139.759 54.3453L139.648 56.3422C140.477 56.3883 141.373 56.5738 142.342 56.9126L143.002 55.0249ZM139.703 54.3438C137.722 54.3438 135.802 54.7979 133.954 55.6939L134.827 57.4936C136.416 56.7229 138.039 56.3438 139.703 56.3438V54.3438ZM133.966 55.6883C132.134 56.547 130.506 57.9067 129.074 59.7249L130.645 60.9626C131.921 59.3433 133.314 58.203 134.815 57.4992L133.966 55.6883ZM129.052 59.7543C127.56 61.7983 126.396 64.3342 125.538 67.3347L127.462 67.8841C128.271 65.0512 129.346 62.7434 130.667 60.9332L129.052 59.7543ZM125.54 67.33C124.68 70.2849 124.25 73.2956 124.25 76.3594H126.25C126.25 73.4856 126.653 70.663 127.46 67.8887L125.54 67.33ZM124.25 76.3594C124.25 78.3118 124.493 80.639 124.968 83.33L126.938 82.9825C126.475 80.361 126.25 78.1569 126.25 76.3594H124.25ZM124.972 83.3487C125.509 86.0898 126.396 88.7484 127.629 91.3227L129.433 90.4585C128.271 88.0329 127.439 85.5352 126.934 82.9638L124.972 83.3487ZM127.633 91.3298C128.851 93.8215 130.598 95.9001 132.863 97.557L134.044 95.943C132.037 94.4749 130.503 92.6472 129.43 90.4514L127.633 91.3298ZM132.863 97.557C135.202 99.2685 138.076 100.094 141.422 100.094V98.0938C138.413 98.0938 135.976 97.3565 134.044 95.943L132.863 97.557ZM141.422 100.094C144.104 100.094 146.524 99.7721 148.669 99.112L148.081 97.2005C146.164 97.7904 143.948 98.0938 141.422 98.0938V100.094ZM149.375 98.1562V82.7656H147.375V98.1562H149.375ZM148.375 81.7656H136.188V83.7656H148.375V81.7656ZM137.188 82.7656V73.625H135.188V82.7656H137.188ZM136.188 74.625H158.453V72.625H136.188V74.625ZM157.453 73.625V103H159.453V73.625H157.453ZM157.91 102.16C152.944 105.371 146.917 107 139.781 107V109C147.229 109 153.65 107.296 158.996 103.84L157.91 102.16ZM139.781 107C135.611 107 132.018 106.072 128.966 104.251L127.941 105.968C131.347 108.001 135.305 109 139.781 109V107ZM128.982 104.261C125.925 102.356 123.426 99.9308 121.475 96.9798L119.806 98.0827C121.918 101.278 124.627 103.904 127.924 105.958L128.982 104.261ZM121.466 96.9666C119.506 94.1019 118.095 90.9068 117.237 87.3734L115.294 87.8454C116.207 91.6036 117.713 95.0231 119.815 98.0959L121.466 96.9666ZM117.241 87.3895C116.424 83.764 116.016 80.0877 116.016 76.3594H114.016C114.016 80.2352 114.44 84.0589 115.29 87.8292L117.241 87.3895ZM116.016 76.3594C116.016 72.5824 116.449 68.9662 117.314 65.5082L115.374 65.0231C114.467 68.6484 114.016 72.428 114.016 76.3594H116.016ZM117.31 65.5215C118.216 62.0999 119.669 59.1264 121.662 56.5859L120.088 55.3516C117.914 58.1236 116.346 61.348 115.377 65.0097L117.31 65.5215ZM121.675 56.5688C123.621 53.9744 126.096 51.796 129.113 50.0357L128.106 48.3081C124.873 50.1936 122.192 52.5464 120.075 55.3687L121.675 56.5688ZM129.113 50.0357C132.06 48.3169 135.577 47.4375 139.703 47.4375V45.4375C135.287 45.4375 131.409 46.381 128.106 48.3081L129.113 50.0357ZM139.703 47.4375C142.184 47.4375 144.532 47.8835 146.754 48.7722L147.496 46.9153C145.031 45.929 142.43 45.4375 139.703 45.4375V47.4375ZM146.754 48.7722C148.996 49.6692 150.923 50.8582 152.546 52.3337L153.891 50.8538C152.077 49.2043 149.941 47.8933 147.496 46.9153L146.754 48.7722ZM152.57 52.3546C154.225 53.7664 155.517 55.495 156.448 57.5528L158.27 56.7285C157.222 54.4112 155.754 52.4419 153.868 50.8329L152.57 52.3546ZM156.457 57.5706C157.406 59.5648 157.922 62.4667 157.922 66.3594H159.922C159.922 62.3354 159.396 59.0914 158.262 56.7107L156.457 57.5706ZM216.031 107.062V108.062H217.031V107.062H216.031ZM206.344 107.062H205.344V108.062H206.344V107.062ZM206.109 78.4688L205.112 78.5353L205.113 78.5535L205.115 78.5716L206.109 78.4688ZM205.484 74.9531L204.552 75.3156L204.556 75.3245L205.484 74.9531ZM204.078 73.0781L203.505 73.8974L203.55 73.9293L203.599 73.956L204.078 73.0781ZM198.219 75.1875L197.413 74.5951L197.41 74.5993L198.219 75.1875ZM195.641 82.8438L196.631 82.9852L196.631 82.9809L195.641 82.8438ZM195.328 85.8125L196.326 85.8749L196.326 85.8712L195.328 85.8125ZM195.25 107.062V108.062H196.25V107.062H195.25ZM185.797 107.062H184.797V108.062H185.797V107.062ZM185.562 78.5469L184.565 78.6181L184.566 78.6358L184.568 78.6534L185.562 78.5469ZM183.531 73.0781L182.958 73.8974L182.987 73.9175L183.017 73.9356L183.531 73.0781ZM178.766 73.625L178.107 72.8724L178.095 72.883L178.083 72.8939L178.766 73.625ZM176.578 77.2188L175.652 76.8424L175.647 76.8549L175.642 76.8676L176.578 77.2188ZM175.172 82.5312L174.185 82.3669L174.184 82.3783L174.182 82.3898L175.172 82.5312ZM174.703 88.4688L173.703 88.4444L173.703 88.4566V88.4688H174.703ZM174.703 107.062V108.062H175.703V107.062H174.703ZM165.016 107.062H164.016V108.062H165.016V107.062ZM165.016 64.1719V63.1719H164.016V64.1719H165.016ZM174.703 64.1719H175.703V63.1719H174.703V64.1719ZM174.703 67.375H173.703V70.2046L175.481 68.0033L174.703 67.375ZM178.219 64.3281L178.695 65.2075L178.707 65.2006L178.219 64.3281ZM190.719 66.5938L191.484 65.9496L191.468 65.9307L191.451 65.9126L190.719 66.5938ZM192.75 69.6406L191.856 70.0878L192.67 71.7172L193.607 70.1551L192.75 69.6406ZM193.922 68L194.696 68.6332L194.705 68.6219L194.714 68.6103L193.922 68ZM216.031 106.062H206.344V108.062H216.031V106.062ZM207.344 107.062V83.1562H205.344V107.062H207.344ZM207.344 83.1562C207.344 81.5094 207.264 79.9125 207.104 78.3659L205.115 78.5716C205.267 80.0458 205.344 81.5739 205.344 83.1562H207.344ZM207.107 78.4022C207.001 76.8088 206.785 75.511 206.413 74.5817L204.556 75.3245C204.809 75.9577 205.009 77.0037 205.112 78.5353L207.107 78.4022ZM206.416 74.5907C206.01 73.5469 205.423 72.6728 204.557 72.2002L203.599 73.956C203.879 74.1084 204.229 74.4844 204.552 75.3156L206.416 74.5907ZM204.652 72.2589C203.939 71.76 203.106 71.5312 202.203 71.5312V73.5312C202.758 73.5312 203.176 73.6671 203.505 73.8974L204.652 72.2589ZM202.203 71.5312C200.374 71.5312 198.785 72.7287 197.413 74.5951L199.024 75.7799C200.256 74.1047 201.324 73.5312 202.203 73.5312V71.5312ZM197.41 74.5993C196.022 76.5085 195.129 79.2469 194.65 82.7066L196.631 82.9809C197.09 79.6698 197.916 77.304 199.027 75.7757L197.41 74.5993ZM194.651 82.7023C194.491 83.8172 194.384 84.835 194.33 85.7538L196.326 85.8712C196.377 85.0192 196.477 84.0578 196.631 82.9852L194.651 82.7023ZM194.33 85.7501C194.276 86.6102 194.25 87.6217 194.25 88.7812H196.25C196.25 87.6492 196.276 86.6814 196.326 85.8749L194.33 85.7501ZM194.25 88.7812V107.062H196.25V88.7812H194.25ZM195.25 106.062H185.797V108.062H195.25V106.062ZM186.797 107.062V83.1562H184.797V107.062H186.797ZM186.797 83.1562C186.797 81.5096 186.717 79.9374 186.557 78.4403L184.568 78.6534C184.72 80.073 184.797 81.5737 184.797 83.1562H186.797ZM186.56 78.4756C186.452 76.9585 186.205 75.6532 185.791 74.5907L183.927 75.3156C184.243 76.128 184.465 77.2186 184.565 78.6181L186.56 78.4756ZM185.791 74.5907C185.395 73.5707 184.846 72.7008 184.046 72.2206L183.017 73.9356C183.258 74.0804 183.595 74.4605 183.927 75.3156L185.791 74.5907ZM184.105 72.2589C183.361 71.7386 182.434 71.5312 181.422 71.5312V73.5312C182.18 73.5312 182.659 73.6885 182.958 73.8974L184.105 72.2589ZM181.422 71.5312C180.2 71.5312 179.088 72.0142 178.107 72.8724L179.424 74.3776C180.11 73.7775 180.769 73.5312 181.422 73.5312V71.5312ZM178.083 72.8939C177.147 73.7678 176.351 75.1211 175.652 76.8424L177.505 77.5951C178.159 75.9831 178.822 74.9405 179.448 74.3561L178.083 72.8939ZM175.642 76.8676C174.993 78.5987 174.508 80.4324 174.185 82.3669L176.158 82.6956C176.461 80.8801 176.914 79.1721 177.514 77.5699L175.642 76.8676ZM174.182 82.3898C173.915 84.2571 173.756 86.2758 173.703 88.4444L175.703 88.4931C175.754 86.3909 175.908 84.4513 176.162 82.6727L174.182 82.3898ZM173.703 88.4688V107.062H175.703V88.4688H173.703ZM174.703 106.062H165.016V108.062H174.703V106.062ZM166.016 107.062V64.1719H164.016V107.062H166.016ZM165.016 65.1719H174.703V63.1719H165.016V65.1719ZM173.703 64.1719V67.375H175.703V64.1719H173.703ZM175.481 68.0033C176.51 66.7295 177.584 65.8092 178.695 65.2074L177.742 63.4488C176.353 64.2012 175.084 65.3122 173.925 66.7467L175.481 68.0033ZM178.707 65.2006C179.896 64.5348 180.979 64.2344 181.969 64.2344V62.2344C180.563 62.2344 179.145 62.6631 177.73 63.4556L178.707 65.2006ZM181.969 64.2344C185.508 64.2344 188.134 65.2833 189.987 67.2749L191.451 65.9126C189.137 63.425 185.929 62.2344 181.969 62.2344V64.2344ZM189.954 67.2379C190.742 68.1737 191.374 69.124 191.856 70.0878L193.644 69.1934C193.085 68.0739 192.362 66.9929 191.484 65.9496L189.954 67.2379ZM193.607 70.1551C193.89 69.6837 194.251 69.1764 194.696 68.6332L193.148 67.3668C192.655 67.9694 192.235 68.5559 191.893 69.1261L193.607 70.1551ZM194.714 68.6103C197.001 65.6419 199.719 64.2344 202.906 64.2344V62.2344C199.01 62.2344 195.738 64.0039 193.13 67.3897L194.714 68.6103ZM202.906 64.2344C206.502 64.2344 209.379 65.4606 211.624 67.8964L213.095 66.5411C210.444 63.6644 207.019 62.2344 202.906 62.2344V64.2344ZM211.624 67.8964C213.837 70.2974 215.031 73.9942 215.031 79.1719H217.031C217.031 73.7246 215.778 69.4526 213.095 66.5411L211.624 67.8964ZM215.031 79.1719V107.062H217.031V79.1719H215.031ZM253.844 107.062V108.062H254.844V107.062H253.844ZM243.922 107.062H242.922V108.062H243.922V107.062ZM243.922 103.859H244.922V101.342L243.194 103.173L243.922 103.859ZM227.75 107.141L227.368 108.065L227.387 108.072L227.406 108.079L227.75 107.141ZM223.844 104.719L223.137 105.426L223.154 105.444L223.173 105.46L223.844 104.719ZM221.188 100.891L220.268 101.285L220.274 101.297L221.188 100.891ZM222.906 87.375L222.117 86.761L222.108 86.7722L222.906 87.375ZM229.469 82.375L229.108 81.4424L229.107 81.4426L229.469 82.375ZM234.625 80.9688L234.461 79.9823L234.456 79.9831L234.625 80.9688ZM243.922 80.5V81.5H244.922V80.5H243.922ZM243.609 76.5938L242.623 76.7581L242.628 76.7907L242.636 76.8228L243.609 76.5938ZM242.75 74.0938L243.618 73.5976L243.605 73.5749L243.591 73.553L242.75 74.0938ZM240.719 72.375L240.228 73.2466L240.26 73.2644L240.293 73.2798L240.719 72.375ZM233.688 73L234.276 73.8087L234.287 73.8002L234.299 73.7913L233.688 73ZM231.969 78.0781V79.0781H232.969V78.0781H231.969ZM221.266 78.0781H220.266V79.0781H221.266V78.0781ZM225.25 67.5312L225.898 68.2925L225.913 68.2801L225.927 68.2672L225.25 67.5312ZM249.703 67.6875L248.964 68.3615L248.971 68.3682L248.977 68.3749L249.703 67.6875ZM243.922 88.5469H244.922V87.5469H243.922V88.5469ZM241.422 88.625V89.625H241.45L241.477 89.6235L241.422 88.625ZM236.812 89.1719L236.977 90.1583L236.981 90.1576L236.812 89.1719ZM232.516 91.0469L231.911 90.2507L231.904 90.2556L231.898 90.2606L232.516 91.0469ZM231.578 98.625L230.948 99.4011L230.963 99.4134L230.978 99.425L231.578 98.625ZM236.812 99.3281L236.968 100.316L236.994 100.312L237.019 100.307L236.812 99.3281ZM239.469 98.2344L240.023 99.0664L240.029 99.0625L240.035 99.0584L239.469 98.2344ZM243.297 94.0938L242.429 93.5976L242.424 93.6052L242.42 93.6129L243.297 94.0938ZM253.844 106.062H243.922V108.062H253.844V106.062ZM244.922 107.062V103.859H242.922V107.062H244.922ZM243.194 103.173C240.85 105.659 237.129 107 231.812 107V109C237.434 109 241.786 107.581 244.649 104.546L243.194 103.173ZM231.812 107C230.824 107 229.592 106.751 228.094 106.202L227.406 108.079C229.033 108.676 230.509 109 231.812 109V107ZM228.132 106.217C226.716 105.631 225.515 104.882 224.515 103.977L223.173 105.46C224.36 106.535 225.763 107.401 227.368 108.065L228.132 106.217ZM224.551 104.012C223.487 102.948 222.674 101.773 222.101 100.484L220.274 101.297C220.951 102.821 221.909 104.198 223.137 105.426L224.551 104.012ZM222.107 100.497C221.542 99.18 221.25 97.6763 221.25 95.9688H219.25C219.25 97.9071 219.583 99.6846 220.268 101.285L222.107 100.497ZM221.25 95.9688C221.25 92.7663 222.084 90.1223 223.704 87.9778L222.108 86.7722C220.187 89.3152 219.25 92.4003 219.25 95.9688H221.25ZM223.696 87.9889C225.417 85.7756 227.461 84.226 229.83 83.3074L229.107 81.4426C226.372 82.5032 224.041 84.2869 222.117 86.7611L223.696 87.9889ZM229.83 83.3076C231.378 82.7082 233.032 82.2564 234.794 81.9544L234.456 79.9831C232.572 80.3061 230.788 80.7918 229.108 81.4424L229.83 83.3076ZM234.789 81.9551C236.643 81.6461 238.065 81.5 239.078 81.5V79.5C237.903 79.5 236.357 79.6664 234.461 79.9824L234.789 81.9551ZM239.078 81.5H243.922V79.5H239.078V81.5ZM244.922 80.5V78.4688H242.922V80.5H244.922ZM244.922 78.4688C244.922 77.9747 244.79 77.2466 244.583 76.3647L242.636 76.8228C242.845 77.7118 242.922 78.2336 242.922 78.4688H244.922ZM244.596 76.4294C244.423 75.3904 244.101 74.4421 243.618 73.5976L241.882 74.5899C242.233 75.2037 242.484 75.9221 242.623 76.7581L244.596 76.4294ZM243.591 73.553C243.008 72.6462 242.177 71.9562 241.145 71.4702L240.293 73.2798C241.031 73.6271 241.554 74.083 241.909 74.6345L243.591 73.553ZM241.209 71.5034C240.193 70.9317 238.999 70.6719 237.672 70.6719V72.6719C238.741 72.6719 239.578 72.8808 240.228 73.2466L241.209 71.5034ZM237.672 70.6719C235.95 70.6719 234.405 71.1819 233.076 72.2087L234.299 73.7913C235.262 73.0473 236.373 72.6719 237.672 72.6719V70.6719ZM233.099 72.1913C231.545 73.3216 230.969 75.4525 230.969 78.0781H232.969C232.969 75.5996 233.538 74.3451 234.276 73.8087L233.099 72.1913ZM231.969 77.0781H221.266V79.0781H231.969V77.0781ZM222.266 78.0781C222.266 75.3159 222.576 73.308 223.127 71.9761L221.279 71.2114C220.58 72.9003 220.266 75.2153 220.266 78.0781H222.266ZM223.127 71.9761C223.684 70.6301 224.597 69.4012 225.898 68.2925L224.602 66.77C223.091 68.0571 221.972 69.5366 221.279 71.2114L223.127 71.9761ZM225.927 68.2672C227.111 67.1781 228.735 66.2208 230.84 65.4189L230.128 63.5499C227.858 64.4146 225.993 65.4886 224.573 66.7953L225.927 68.2672ZM230.84 65.4189C232.902 64.6334 235.176 64.2344 237.672 64.2344V62.2344C234.96 62.2344 232.442 62.6686 230.128 63.5499L230.84 65.4189ZM237.672 64.2344C242.798 64.2344 246.501 65.6616 248.964 68.3615L250.442 67.0135C247.488 63.7759 243.17 62.2344 237.672 62.2344V64.2344ZM248.977 68.3749C251.559 71.1035 252.844 74.3461 252.844 78.1562H254.844C254.844 73.8414 253.368 70.1049 250.429 67.0001L248.977 68.3749ZM252.844 78.1562V107.062H254.844V78.1562H252.844ZM244.922 91.2031V88.5469H242.922V91.2031H244.922ZM243.922 87.5469C243.17 87.5469 242.317 87.5737 241.366 87.6265L241.477 89.6235C242.401 89.5721 243.216 89.5469 243.922 89.5469V87.5469ZM241.422 87.625C240.392 87.625 238.782 87.8211 236.644 88.1861L236.981 90.1576C239.114 89.7935 240.577 89.625 241.422 89.625V87.625ZM236.648 88.1855C234.92 88.4735 233.338 89.1662 231.911 90.2507L233.121 91.843C234.298 90.9484 235.58 90.3911 236.977 90.1583L236.648 88.1855ZM231.898 90.2606C230.239 91.5641 229.328 93.2179 229.328 95.1875H231.328C231.328 93.9279 231.876 92.8213 233.133 91.8332L231.898 90.2606ZM229.328 95.1875C229.328 96.9483 229.782 98.4543 230.948 99.4011L232.209 97.8489C231.707 97.4415 231.328 96.6558 231.328 95.1875H229.328ZM230.978 99.425C232.01 100.199 233.245 100.562 234.625 100.562V98.5625C233.61 98.5625 232.813 98.3013 232.178 97.825L230.978 99.425ZM234.625 100.562C235.177 100.562 235.972 100.473 236.968 100.316L236.657 98.3404C235.674 98.4955 235.01 98.5625 234.625 98.5625V100.562ZM237.019 100.307C238.123 100.074 239.128 99.6631 240.023 99.0664L238.914 97.4023C238.247 97.8473 237.481 98.1654 236.606 98.3496L237.019 100.307ZM240.035 99.0584C241.818 97.8329 243.206 96.3393 244.174 94.5746L242.42 93.6129C241.617 95.0773 240.453 96.3442 238.902 97.4103L240.035 99.0584ZM244.165 94.5899C244.697 93.6587 244.922 92.5051 244.922 91.2031H242.922C242.922 92.297 242.73 93.0705 242.429 93.5976L244.165 94.5899ZM270.875 58.8594V59.8594H271.875V58.8594H270.875ZM259.703 58.8594H258.703V59.8594H259.703V58.8594ZM259.703 47.4531V46.4531H258.703V47.4531H259.703ZM270.875 47.4531H271.875V46.4531H270.875V47.4531ZM270.406 107.062V108.062H271.406V107.062H270.406ZM260.328 107.062H259.328V108.062H260.328V107.062ZM260.328 64.1719V63.1719H259.328V64.1719H260.328ZM270.406 64.1719H271.406V63.1719H270.406V64.1719ZM270.875 57.8594H259.703V59.8594H270.875V57.8594ZM260.703 58.8594V47.4531H258.703V58.8594H260.703ZM259.703 48.4531H270.875V46.4531H259.703V48.4531ZM269.875 47.4531V58.8594H271.875V47.4531H269.875ZM270.406 106.062H260.328V108.062H270.406V106.062ZM261.328 107.062V64.1719H259.328V107.062H261.328ZM260.328 65.1719H270.406V63.1719H260.328V65.1719ZM269.406 64.1719V107.062H271.406V64.1719H269.406ZM287.359 107.062V108.062H288.359V107.062H287.359ZM277.281 107.062H276.281V108.062H277.281V107.062ZM277.281 47.4531V46.4531H276.281V47.4531H277.281ZM287.359 47.4531H288.359V46.4531H287.359V47.4531ZM287.359 106.062H277.281V108.062H287.359V106.062ZM278.281 107.062V47.4531H276.281V107.062H278.281ZM277.281 48.4531H287.359V46.4531H277.281V48.4531ZM286.359 47.4531V107.062H288.359V47.4531H286.359ZM335.719 66.3594V67.3594H336.719V66.3594H335.719ZM325.25 66.3594H324.25V67.3594H325.25V66.3594ZM324.391 60.3438L323.474 60.7425L323.481 60.759L323.488 60.7752L324.391 60.3438ZM322.359 57.4531L323.018 56.7005L323.016 56.699L322.359 57.4531ZM311.266 56.5938L311.69 57.4992L311.702 57.4938L311.713 57.4882L311.266 56.5938ZM306.656 60.4219L305.873 59.8L305.865 59.8108L305.856 59.8219L306.656 60.4219ZM305.328 91.0469L304.43 91.4867L304.438 91.5022L304.446 91.5175L305.328 91.0469ZM310.328 96.9062L309.728 97.7062L309.735 97.7111L309.741 97.7159L310.328 96.9062ZM325.328 97.9219L325.657 98.8664L325.668 98.8623L325.328 97.9219ZM333.922 93.1562H334.922V91.2381L333.349 92.3364L333.922 93.1562ZM333.922 103.781L334.477 104.613L334.922 104.316V103.781H333.922ZM331.578 105.031L331.131 104.137L331.123 104.141L331.116 104.145L331.578 105.031ZM327.75 106.594L328.027 107.555L328.035 107.552L328.044 107.55L327.75 106.594ZM305.328 105.266L304.809 106.121L304.82 106.127L305.328 105.266ZM297.438 97.7656L296.603 98.3171L296.61 98.3268L297.438 97.7656ZM293.062 87.6875L292.087 87.9073L292.089 87.9154L292.091 87.9235L293.062 87.6875ZM293.141 65.3438L292.173 65.0913L292.17 65.1012L293.141 65.3438ZM297.672 55.9688L298.459 56.5859L298.465 56.5774L298.472 56.5688L297.672 55.9688ZM330.016 51.5938L329.343 52.3337L329.355 52.3443L329.367 52.3546L330.016 51.5938ZM334.156 57.1406L333.245 57.5528L333.249 57.5617L333.253 57.5706L334.156 57.1406ZM335.719 65.3594H325.25V67.3594H335.719V65.3594ZM326.25 66.3594C326.25 63.5282 325.969 61.327 325.293 59.9123L323.488 60.7752C323.958 61.7563 324.25 63.5655 324.25 66.3594H326.25ZM325.308 59.945C324.738 58.6356 323.981 57.5431 323.018 56.7005L321.701 58.2057C322.405 58.8215 323.001 59.656 323.474 60.7425L325.308 59.945ZM323.016 56.699C321.206 55.1225 319.015 54.3438 316.5 54.3438V56.3438C318.569 56.3438 320.283 56.9712 321.703 58.2072L323.016 56.699ZM316.5 54.3438C314.518 54.3438 312.621 54.7982 310.818 55.6993L311.713 57.4882C313.244 56.7227 314.836 56.3438 316.5 56.3438V54.3438ZM310.841 55.6883C309.006 56.5484 307.354 57.9353 305.873 59.8L307.439 61.0438C308.771 59.3667 310.192 58.2016 311.69 57.4992L310.841 55.6883ZM305.856 59.8219C304.359 61.8186 303.193 64.3335 302.335 67.3347L304.258 67.8841C305.068 65.052 306.141 62.7752 307.456 61.0219L305.856 59.8219ZM302.335 67.3347C301.477 70.3387 301.047 73.3738 301.047 76.4375H303.047C303.047 73.5637 303.45 70.7134 304.258 67.8841L302.335 67.3347ZM301.047 76.4375C301.047 78.3899 301.29 80.7172 301.765 83.4082L303.735 83.0606C303.272 80.4391 303.047 78.2351 303.047 76.4375H301.047ZM301.765 83.4082C302.251 86.1616 303.141 88.855 304.43 91.4867L306.226 90.607C305.015 88.1346 304.186 85.6197 303.735 83.0606L301.765 83.4082ZM304.446 91.5175C305.763 93.9877 307.525 96.0541 309.728 97.7062L310.928 96.1063C308.964 94.6334 307.393 92.7936 306.21 90.5763L304.446 91.5175ZM309.741 97.7159C312.032 99.3766 314.881 100.172 318.219 100.172V98.1719C315.202 98.1719 312.791 97.4568 310.915 96.0966L309.741 97.7159ZM318.219 100.172C320.683 100.172 323.164 99.7334 325.657 98.8664L325 96.9774C322.701 97.777 320.442 98.1719 318.219 98.1719V100.172ZM325.668 98.8623C328.23 97.9356 331.175 96.2941 334.494 93.9761L333.349 92.3364C330.106 94.6017 327.322 96.1373 324.988 96.9815L325.668 98.8623ZM332.922 93.1562V103.781H334.922V93.1562H332.922ZM333.367 102.949C333.118 103.116 332.399 103.503 331.131 104.137L332.025 105.926C333.257 105.31 334.101 104.864 334.477 104.613L333.367 102.949ZM331.116 104.145C329.974 104.74 328.755 105.238 327.456 105.638L328.044 107.55C329.454 107.116 330.786 106.572 332.041 105.918L331.116 104.145ZM327.473 105.633C324.136 106.594 320.506 107.078 316.578 107.078V109.078C320.671 109.078 324.489 108.573 328.027 107.555L327.473 105.633ZM316.578 107.078C312.403 107.078 308.835 106.174 305.836 104.404L304.82 106.127C308.176 108.107 312.107 109.078 316.578 109.078V107.078ZM305.847 104.411C302.793 102.558 300.268 100.158 298.265 97.2045L296.61 98.3268C298.774 101.519 301.51 104.119 304.81 106.121L305.847 104.411ZM298.272 97.2142C296.305 94.2395 294.893 90.9872 294.034 87.4515L292.091 87.9235C293.003 91.6795 294.507 95.1459 296.603 98.3171L298.272 97.2142ZM294.038 87.4677C293.221 83.8421 292.812 80.1658 292.812 76.4375H290.812C290.812 80.3133 291.237 84.1371 292.087 87.9073L294.038 87.4677ZM292.812 76.4375C292.812 72.6605 293.246 69.0443 294.111 65.5863L292.17 65.1012C291.264 68.7265 290.812 72.5061 290.812 76.4375H292.812ZM294.108 65.5962C295.015 62.1217 296.468 59.1239 298.459 56.5859L296.885 55.3516C294.709 58.1261 293.142 61.3783 292.173 65.0913L294.108 65.5962ZM298.472 56.5688C300.418 53.9744 302.892 51.796 305.91 50.0357L304.902 48.3081C301.67 50.1936 298.989 52.5464 296.872 55.3687L298.472 56.5688ZM305.91 50.0357C308.857 48.3169 312.374 47.4375 316.5 47.4375V45.4375C312.084 45.4375 308.206 46.381 304.902 48.3081L305.91 50.0357ZM316.5 47.4375C318.981 47.4375 321.329 47.8835 323.55 48.7722L324.293 46.9153C321.828 45.929 319.227 45.4375 316.5 45.4375V47.4375ZM323.55 48.7722C325.793 49.6692 327.72 50.8582 329.343 52.3337L330.688 50.8538C328.874 49.2043 326.738 47.8933 324.293 46.9153L323.55 48.7722ZM329.367 52.3546C331.022 53.7664 332.314 55.495 333.245 57.5528L335.067 56.7285C334.019 54.4112 332.551 52.4419 330.665 50.8329L329.367 52.3546ZM333.253 57.5706C334.203 59.5648 334.719 62.4667 334.719 66.3594H336.719C336.719 62.3354 336.193 59.0914 335.059 56.7107L333.253 57.5706ZM350.172 107.062V108.062H351.172V107.062H350.172ZM340.094 107.062H339.094V108.062H340.094V107.062ZM340.094 47.4531V46.4531H339.094V47.4531H340.094ZM350.172 47.4531H351.172V46.4531H350.172V47.4531ZM350.172 106.062H340.094V108.062H350.172V106.062ZM341.094 107.062V47.4531H339.094V107.062H341.094ZM340.094 48.4531H350.172V46.4531H340.094V48.4531ZM349.172 47.4531V107.062H351.172V47.4531H349.172ZM365.094 80.8906L364.109 80.7193L363.905 81.8906H365.094V80.8906ZM380.016 80.8906V81.8906H381.016V80.8906H380.016ZM378.688 74.6406L379.576 74.1827L379.564 74.1578L379.549 74.1336L378.688 74.6406ZM376.5 72.5312L375.957 73.3708L375.985 73.3891L376.014 73.4054L376.5 72.5312ZM367.516 75.0312L368.299 75.6526L368.3 75.6515L367.516 75.0312ZM365.328 89.3281V88.3281H364.091L364.35 89.5377L365.328 89.3281ZM365.953 91.5938L365.004 91.91L365.009 91.9223L365.953 91.5938ZM367.906 95.1875L367.102 95.7819L367.11 95.793L367.119 95.8038L367.906 95.1875ZM371.344 98.3125L370.797 99.1495L370.827 99.1692L370.858 99.1867L371.344 98.3125ZM382.203 98.7031L382.458 99.6702L382.469 99.6671L382.481 99.6637L382.203 98.7031ZM388.844 95.6562H389.844V93.8965L388.332 94.7971L388.844 95.6562ZM388.844 104.406L389.347 105.271L389.844 104.981V104.406H388.844ZM380.641 107.688L380.818 108.672L380.827 108.67L380.837 108.668L380.641 107.688ZM372.75 108L372.615 108.991L372.634 108.993L372.652 108.995L372.75 108ZM365.875 105.891L365.42 106.781L365.432 106.787L365.444 106.793L365.875 105.891ZM360.406 101.906L359.64 102.548L359.657 102.569L359.674 102.588L360.406 101.906ZM355.875 76.3594L354.923 76.0546L354.919 76.0667L355.875 76.3594ZM359.469 69.6406L360.237 70.2808L360.242 70.2744L360.247 70.268L359.469 69.6406ZM365.25 65.0312L364.803 64.1368L364.795 64.1408L365.25 65.0312ZM386.422 69.3281L385.616 69.9205L385.621 69.9276L385.627 69.9346L386.422 69.3281ZM389.938 89.3281V90.3281H390.938V89.3281H389.938ZM365.094 81.8906H380.016V79.8906H365.094V81.8906ZM381.016 80.8906C381.016 78.3247 380.552 76.0757 379.576 74.1827L377.799 75.0986C378.594 76.643 379.016 78.5607 379.016 80.8906H381.016ZM379.549 74.1336C378.934 73.0875 378.072 72.2606 376.986 71.6571L376.014 73.4054C376.803 73.8436 377.399 74.4229 377.826 75.1476L379.549 74.1336ZM377.043 71.6917C375.99 71.01 374.81 70.6719 373.531 70.6719V72.6719C374.44 72.6719 375.239 72.9066 375.957 73.3708L377.043 71.6917ZM373.531 70.6719C370.905 70.6719 368.635 72.0035 366.731 74.411L368.3 75.6515C369.938 73.5798 371.679 72.6719 373.531 72.6719V70.6719ZM366.732 74.4099C365.407 76.081 364.546 78.2011 364.109 80.7193L366.079 81.062C366.474 78.7885 367.229 77.0024 368.299 75.6526L366.732 74.4099ZM364.35 89.5377C364.515 90.3064 364.734 91.0973 365.004 91.91L366.902 91.2775C366.652 90.5277 366.454 89.8082 366.306 89.1186L364.35 89.5377ZM365.009 91.9223C365.464 93.2303 366.167 94.5167 367.102 95.7819L368.71 94.5931C367.875 93.4625 367.276 92.353 366.898 91.2652L365.009 91.9223ZM367.119 95.8038C368.128 97.0933 369.357 98.208 370.797 99.1495L371.891 97.4755C370.623 96.6462 369.56 95.6776 368.694 94.5712L367.119 95.8038ZM370.858 99.1867C371.43 99.5045 372.223 99.7899 373.185 100.057L373.721 98.1302C372.808 97.8768 372.195 97.6413 371.829 97.4383L370.858 99.1867ZM373.185 100.057C374.237 100.349 375.478 100.484 376.891 100.484V98.4844C375.594 98.4844 374.545 98.3591 373.721 98.1302L373.185 100.057ZM376.891 100.484C378.561 100.484 380.419 100.207 382.458 99.6702L381.949 97.736C380.028 98.2414 378.345 98.4844 376.891 98.4844V100.484ZM382.481 99.6637C384.567 99.06 386.86 98.002 389.356 96.5154L388.332 94.7971C385.932 96.2272 383.798 97.2005 381.925 97.7426L382.481 99.6637ZM387.844 95.6562V104.406H389.844V95.6562H387.844ZM388.341 103.542C385.549 105.166 382.918 106.212 380.445 106.707L380.837 108.668C383.572 108.121 386.409 106.979 389.347 105.271L388.341 103.542ZM380.463 106.703C377.951 107.156 375.413 107.256 372.848 107.005L372.652 108.995C375.4 109.265 378.122 109.157 380.818 108.672L380.463 106.703ZM372.885 107.009C370.705 106.712 368.513 106.042 366.306 104.988L365.444 106.793C367.82 107.927 370.211 108.663 372.615 108.991L372.885 107.009ZM366.33 105C364.173 103.896 362.45 102.634 361.138 101.225L359.674 102.588C361.175 104.2 363.098 105.593 365.42 106.781L366.33 105ZM361.173 101.264C359.643 99.4385 358.34 97.1448 357.278 94.362L355.41 95.0755C356.535 98.0218 357.94 100.52 359.64 102.548L361.173 101.264ZM357.278 94.362C356.236 91.6322 355.703 88.4754 355.703 84.875H353.703C353.703 88.6704 354.264 92.0762 355.41 95.0755L357.278 94.362ZM355.703 84.875C355.703 81.8327 356.083 79.0947 356.831 76.6521L354.919 76.0667C354.104 78.7282 353.703 81.6673 353.703 84.875H355.703ZM356.827 76.6642C357.626 74.1679 358.766 72.0457 360.237 70.2808L358.701 69.0004C357.046 70.9856 355.79 73.3425 354.923 76.0546L356.827 76.6642ZM360.247 70.268C361.662 68.5123 363.475 67.0616 365.705 65.9217L364.795 64.1408C362.338 65.3967 360.297 67.019 358.69 69.0133L360.247 70.268ZM365.697 65.9257C367.931 64.809 370.559 64.2344 373.609 64.2344V62.2344C370.306 62.2344 367.361 62.8577 364.803 64.1368L365.697 65.9257ZM373.609 64.2344C376.116 64.2344 378.436 64.7737 380.584 65.8476L381.478 64.0587C379.043 62.8409 376.415 62.2344 373.609 62.2344V64.2344ZM380.584 65.8476C382.757 66.9343 384.422 68.2969 385.616 69.9205L387.228 68.7357C385.817 66.8177 383.888 65.2636 381.478 64.0587L380.584 65.8476ZM385.627 69.9346C387.766 72.7389 388.938 77.5388 388.938 84.5625H390.938C390.938 77.4195 389.766 72.0632 387.217 68.7217L385.627 69.9346ZM388.938 84.5625V89.3281H390.938V84.5625H388.938ZM389.938 88.3281H365.328V90.3281H389.938V88.3281ZM426.031 107.062V108.062H427.031V107.062H426.031ZM416.109 107.062H415.109V108.062H416.109V107.062ZM416.109 103.859H417.109V101.342L415.382 103.173L416.109 103.859ZM399.938 107.141L399.555 108.065L399.574 108.072L399.593 108.079L399.938 107.141ZM396.031 104.719L395.324 105.426L395.342 105.444L395.36 105.46L396.031 104.719ZM393.375 100.891L392.456 101.285L392.461 101.297L393.375 100.891ZM395.094 87.375L394.304 86.761L394.296 86.7722L395.094 87.375ZM401.656 82.375L401.295 81.4424L401.295 81.4426L401.656 82.375ZM406.812 80.9688L406.648 79.9823L406.644 79.9831L406.812 80.9688ZM416.109 80.5V81.5H417.109V80.5H416.109ZM415.797 76.5938L414.81 76.7581L414.816 76.7907L414.823 76.8228L415.797 76.5938ZM414.938 74.0938L415.806 73.5976L415.793 73.5749L415.779 73.553L414.938 74.0938ZM412.906 72.375L412.416 73.2466L412.448 73.2644L412.48 73.2798L412.906 72.375ZM405.875 73L406.463 73.8087L406.475 73.8002L406.486 73.7913L405.875 73ZM404.156 78.0781V79.0781H405.156V78.0781H404.156ZM393.453 78.0781H392.453V79.0781H393.453V78.0781ZM397.438 67.5312L398.086 68.2925L398.1 68.2801L398.115 68.2672L397.438 67.5312ZM421.891 67.6875L421.152 68.3615L421.158 68.3682L421.164 68.3749L421.891 67.6875ZM416.109 88.5469H417.109V87.5469H416.109V88.5469ZM413.609 88.625V89.625H413.637L413.665 89.6235L413.609 88.625ZM409 89.1719L409.164 90.1583L409.168 90.1576L409 89.1719ZM404.703 91.0469L404.098 90.2507L404.092 90.2556L404.085 90.2606L404.703 91.0469ZM403.766 98.625L403.135 99.4011L403.15 99.4134L403.166 99.425L403.766 98.625ZM409 99.3281L409.156 100.316L409.181 100.312L409.206 100.307L409 99.3281ZM411.656 98.2344L412.211 99.0664L412.217 99.0625L412.223 99.0584L411.656 98.2344ZM415.484 94.0938L414.616 93.5976L414.612 93.6052L414.608 93.6129L415.484 94.0938ZM426.031 106.062H416.109V108.062H426.031V106.062ZM417.109 107.062V103.859H415.109V107.062H417.109ZM415.382 103.173C413.037 105.659 409.316 107 404 107V109C409.621 109 413.973 107.581 416.837 104.546L415.382 103.173ZM404 107C403.012 107 401.779 106.751 400.282 106.202L399.593 108.079C401.221 108.676 402.696 109 404 109V107ZM400.32 106.217C398.904 105.631 397.702 104.882 396.702 103.977L395.36 105.46C396.548 106.535 397.95 107.401 399.555 108.065L400.32 106.217ZM396.738 104.012C395.675 102.948 394.861 101.773 394.289 100.484L392.461 101.297C393.139 102.821 394.096 104.198 395.324 105.426L396.738 104.012ZM394.294 100.497C393.73 99.18 393.438 97.6763 393.438 95.9688H391.438C391.438 97.9071 391.77 99.6846 392.456 101.285L394.294 100.497ZM393.438 95.9688C393.438 92.7663 394.271 90.1223 395.892 87.9778L394.296 86.7722C392.374 89.3152 391.438 92.4003 391.438 95.9688H393.438ZM395.883 87.9889C397.605 85.7756 399.649 84.226 402.018 83.3074L401.295 81.4426C398.56 82.5032 396.229 84.2869 394.304 86.7611L395.883 87.9889ZM402.017 83.3076C403.566 82.7082 405.22 82.2564 406.981 81.9544L406.644 79.9831C404.759 80.3061 402.976 80.7918 401.295 81.4424L402.017 83.3076ZM406.977 81.9551C408.831 81.6461 410.253 81.5 411.266 81.5V79.5C410.091 79.5 408.544 79.6664 406.648 79.9824L406.977 81.9551ZM411.266 81.5H416.109V79.5H411.266V81.5ZM417.109 80.5V78.4688H415.109V80.5H417.109ZM417.109 78.4688C417.109 77.9747 416.978 77.2466 416.77 76.3647L414.823 76.8228C415.033 77.7118 415.109 78.2336 415.109 78.4688H417.109ZM416.783 76.4294C416.61 75.3904 416.288 74.4421 415.806 73.5976L414.069 74.5899C414.42 75.2037 414.671 75.9221 414.81 76.7581L416.783 76.4294ZM415.779 73.553C415.196 72.6462 414.365 71.9562 413.332 71.4702L412.48 73.2798C413.218 73.6271 413.742 74.083 414.096 74.6345L415.779 73.553ZM413.397 71.5034C412.38 70.9317 411.186 70.6719 409.859 70.6719V72.6719C410.928 72.6719 411.766 72.8808 412.416 73.2466L413.397 71.5034ZM409.859 70.6719C408.138 70.6719 406.592 71.1819 405.264 72.2087L406.486 73.7913C407.449 73.0473 408.56 72.6719 409.859 72.6719V70.6719ZM405.287 72.1913C403.733 73.3216 403.156 75.4525 403.156 78.0781H405.156C405.156 75.5996 405.726 74.3451 406.463 73.8087L405.287 72.1913ZM404.156 77.0781H393.453V79.0781H404.156V77.0781ZM394.453 78.0781C394.453 75.3159 394.764 73.308 395.315 71.9761L393.467 71.2114C392.768 72.9003 392.453 75.2153 392.453 78.0781H394.453ZM395.315 71.9761C395.872 70.6301 396.784 69.4012 398.086 68.2925L396.789 66.77C395.278 68.0571 394.16 69.5366 393.467 71.2114L395.315 71.9761ZM398.115 68.2672C399.298 67.1781 400.923 66.2208 403.028 65.4189L402.316 63.5499C400.046 64.4146 398.181 65.4886 396.76 66.7953L398.115 68.2672ZM403.028 65.4189C405.09 64.6334 407.363 64.2344 409.859 64.2344V62.2344C407.147 62.2344 404.629 62.6686 402.316 63.5499L403.028 65.4189ZM409.859 64.2344C414.986 64.2344 418.689 65.6616 421.152 68.3615L422.629 67.0135C419.676 63.7759 415.358 62.2344 409.859 62.2344V64.2344ZM421.164 68.3749C423.747 71.1035 425.031 74.3461 425.031 78.1562H427.031C427.031 73.8414 425.555 70.1049 422.617 67.0001L421.164 68.3749ZM425.031 78.1562V107.062H427.031V78.1562H425.031ZM417.109 91.2031V88.5469H415.109V91.2031H417.109ZM416.109 87.5469C415.357 87.5469 414.505 87.5737 413.554 87.6265L413.665 89.6235C414.589 89.5721 415.403 89.5469 416.109 89.5469V87.5469ZM413.609 87.625C412.579 87.625 410.97 87.8211 408.832 88.1861L409.168 90.1576C411.301 89.7935 412.764 89.625 413.609 89.625V87.625ZM408.836 88.1855C407.108 88.4735 405.525 89.1662 404.098 90.2507L405.308 91.843C406.485 90.9484 407.767 90.3911 409.164 90.1583L408.836 88.1855ZM404.085 90.2606C402.426 91.5641 401.516 93.2179 401.516 95.1875H403.516C403.516 93.9279 404.063 92.8213 405.321 91.8332L404.085 90.2606ZM401.516 95.1875C401.516 96.9483 401.97 98.4543 403.135 99.4011L404.396 97.8489C403.895 97.4415 403.516 96.6558 403.516 95.1875H401.516ZM403.166 99.425C404.197 100.199 405.432 100.562 406.812 100.562V98.5625C405.797 98.5625 405.001 98.3013 404.366 97.825L403.166 99.425ZM406.812 100.562C407.365 100.562 408.159 100.473 409.156 100.316L408.844 98.3404C407.862 98.4955 407.198 98.5625 406.812 98.5625V100.562ZM409.206 100.307C410.31 100.074 411.316 99.6631 412.211 99.0664L411.102 97.4023C410.434 97.8473 409.669 98.1654 408.794 98.3496L409.206 100.307ZM412.223 99.0584C414.005 97.8329 415.393 96.3393 416.361 94.5746L414.608 93.6129C413.805 95.0773 412.64 96.3442 411.09 97.4103L412.223 99.0584ZM416.353 94.5899C416.885 93.6587 417.109 92.5051 417.109 91.2031H415.109C415.109 92.297 414.917 93.0705 414.616 93.5976L416.353 94.5899ZM465.953 107.062V108.062H466.953V107.062H465.953ZM456.031 107.062H455.031V108.062H456.031V107.062ZM454.312 73.625L455.145 73.0703L455.129 73.0472L455.112 73.025L454.312 73.625ZM442.594 82.6875L443.567 82.9165L443.571 82.9001L443.574 82.8836L442.594 82.6875ZM442.125 85.3438L441.132 85.2269L441.128 85.2559L441.127 85.285L442.125 85.3438ZM442.047 107.062V108.062H443.047V107.062H442.047ZM432.203 107.062H431.203V108.062H432.203V107.062ZM432.203 64.1719V63.1719H431.203V64.1719H432.203ZM442.047 64.1719H443.047V63.1719H442.047V64.1719ZM442.047 67.7656H441.047V70.8289L442.854 68.3556L442.047 67.7656ZM461.969 67.1406L462.683 66.4404L462.676 66.4335L461.969 67.1406ZM465.953 106.062H456.031V108.062H465.953V106.062ZM457.031 107.062V80.5H455.031V107.062H457.031ZM457.031 80.5C457.031 77.5118 456.435 75.0055 455.145 73.0703L453.48 74.1797C454.482 75.682 455.031 77.759 455.031 80.5H457.031ZM455.112 73.025C454.08 71.6477 452.448 71.0625 450.484 71.0625V73.0625C452.062 73.0625 452.983 73.5189 453.513 74.225L455.112 73.025ZM450.484 71.0625C448.565 71.0625 446.804 72.1575 445.202 73.9805L446.704 75.3007C448.123 73.6863 449.383 73.0625 450.484 73.0625V71.0625ZM445.202 73.9805C443.525 75.8893 442.357 78.7698 441.613 82.4914L443.574 82.8836C444.288 79.3135 445.361 76.8295 446.704 75.3007L445.202 73.9805ZM441.62 82.4585C441.403 83.3801 441.241 84.303 441.132 85.2269L443.118 85.4606C443.218 84.6137 443.367 83.7657 443.567 82.9165L441.62 82.4585ZM441.127 85.285C441.073 86.1954 441.047 87.2575 441.047 88.4688H443.047C443.047 87.2841 443.073 86.2629 443.123 85.4025L441.127 85.285ZM441.047 88.4688V107.062H443.047V88.4688H441.047ZM442.047 106.062H432.203V108.062H442.047V106.062ZM433.203 107.062V64.1719H431.203V107.062H433.203ZM432.203 65.1719H442.047V63.1719H432.203V65.1719ZM441.047 64.1719V67.7656H443.047V64.1719H441.047ZM442.854 68.3556C443.735 67.1509 444.953 66.1562 446.546 65.3842L445.673 63.5846C443.828 64.4792 442.338 65.672 441.239 67.1756L442.854 68.3556ZM446.546 65.3842C448.169 64.5972 449.607 64.2344 450.875 64.2344V62.2344C449.226 62.2344 447.487 62.7049 445.673 63.5846L446.546 65.3842ZM450.875 64.2344C455.485 64.2344 458.897 65.4827 461.262 67.8477L462.676 66.4335C459.833 63.5902 455.849 62.2344 450.875 62.2344V64.2344ZM461.255 67.8408C463.673 70.3068 464.953 73.9015 464.953 78.7812H466.953C466.953 73.5568 465.577 69.3911 462.683 66.4404L461.255 67.8408ZM464.953 78.7812V107.062H466.953V78.7812H464.953ZM480.562 80.8906L479.577 80.7193L479.374 81.8906H480.562V80.8906ZM495.484 80.8906V81.8906H496.484V80.8906H495.484ZM494.156 74.6406L495.045 74.1827L495.032 74.1578L495.018 74.1336L494.156 74.6406ZM491.969 72.5312L491.426 73.3708L491.454 73.3891L491.483 73.4054L491.969 72.5312ZM482.984 75.0312L483.768 75.6526L483.769 75.6515L482.984 75.0312ZM480.797 89.3281V88.3281H479.56L479.819 89.5377L480.797 89.3281ZM481.422 91.5938L480.473 91.91L480.477 91.9223L481.422 91.5938ZM483.375 95.1875L482.571 95.7819L482.579 95.793L482.587 95.8038L483.375 95.1875ZM486.812 98.3125L486.265 99.1495L486.295 99.1692L486.327 99.1867L486.812 98.3125ZM497.672 98.7031L497.926 99.6702L497.938 99.6671L497.95 99.6637L497.672 98.7031ZM504.312 95.6562H505.312V93.8965L503.801 94.7971L504.312 95.6562ZM504.312 104.406L504.815 105.271L505.312 104.981V104.406H504.312ZM496.109 107.688L496.287 108.672L496.296 108.67L496.305 108.668L496.109 107.688ZM488.219 108L488.084 108.991L488.102 108.993L488.121 108.995L488.219 108ZM481.344 105.891L480.888 106.781L480.901 106.787L480.913 106.793L481.344 105.891ZM475.875 101.906L475.108 102.548L475.125 102.569L475.143 102.588L475.875 101.906ZM471.344 76.3594L470.391 76.0546L470.388 76.0667L471.344 76.3594ZM474.938 69.6406L475.706 70.2808L475.711 70.2744L475.716 70.268L474.938 69.6406ZM480.719 65.0312L480.272 64.1368L480.264 64.1408L480.719 65.0312ZM501.891 69.3281L501.085 69.9205L501.09 69.9276L501.095 69.9346L501.891 69.3281ZM505.406 89.3281V90.3281H506.406V89.3281H505.406ZM480.562 81.8906H495.484V79.8906H480.562V81.8906ZM496.484 80.8906C496.484 78.3247 496.02 76.0757 495.045 74.1827L493.267 75.0986C494.063 76.643 494.484 78.5607 494.484 80.8906H496.484ZM495.018 74.1336C494.403 73.0875 493.541 72.2606 492.454 71.6571L491.483 73.4054C492.272 73.8436 492.868 74.4229 493.294 75.1476L495.018 74.1336ZM492.512 71.6917C491.459 71.01 490.279 70.6719 489 70.6719V72.6719C489.909 72.6719 490.708 72.9066 491.426 73.3708L492.512 71.6917ZM489 70.6719C486.373 70.6719 484.104 72.0035 482.2 74.411L483.769 75.6515C485.407 73.5798 487.147 72.6719 489 72.6719V70.6719ZM482.201 74.4099C480.876 76.081 480.015 78.2011 479.577 80.7193L481.548 81.062C481.943 78.7885 482.697 77.0024 483.768 75.6526L482.201 74.4099ZM479.819 89.5377C479.984 90.3064 480.202 91.0973 480.473 91.91L482.371 91.2775C482.121 90.5277 481.922 89.8082 481.775 89.1186L479.819 89.5377ZM480.477 91.9223C480.932 93.2303 481.636 94.5167 482.571 95.7819L484.179 94.5931C483.344 93.4625 482.745 92.353 482.366 91.2652L480.477 91.9223ZM482.587 95.8038C483.597 97.0933 484.825 98.208 486.265 99.1495L487.36 97.4755C486.091 96.6462 485.028 95.6776 484.163 94.5712L482.587 95.8038ZM486.327 99.1867C486.899 99.5045 487.692 99.7899 488.654 100.057L489.19 98.1302C488.277 97.8768 487.664 97.6413 487.298 97.4383L486.327 99.1867ZM488.654 100.057C489.705 100.349 490.947 100.484 492.359 100.484V98.4844C491.063 98.4844 490.013 98.3591 489.19 98.1302L488.654 100.057ZM492.359 100.484C494.03 100.484 495.888 100.207 497.926 99.6702L497.417 97.736C495.497 98.2414 493.814 98.4844 492.359 98.4844V100.484ZM497.95 99.6637C500.036 99.06 502.329 98.002 504.824 96.5154L503.801 94.7971C501.4 96.2272 499.267 97.2005 497.394 97.7426L497.95 99.6637ZM503.312 95.6562V104.406H505.312V95.6562H503.312ZM503.81 103.542C501.018 105.166 498.387 106.212 495.913 106.707L496.305 108.668C499.041 108.121 501.878 106.979 504.815 105.271L503.81 103.542ZM495.932 106.703C493.419 107.156 490.882 107.256 488.316 107.005L488.121 108.995C490.868 109.265 493.591 109.157 496.287 108.672L495.932 106.703ZM488.354 107.009C486.174 106.712 483.982 106.042 481.774 104.988L480.913 106.793C483.289 107.927 485.68 108.663 488.084 108.991L488.354 107.009ZM481.799 105C479.641 103.896 477.919 102.634 476.607 101.225L475.143 102.588C476.644 104.2 478.567 105.593 480.888 106.781L481.799 105ZM476.642 101.264C475.112 99.4385 473.809 97.1448 472.747 94.362L470.878 95.0755C472.003 98.0218 473.409 100.52 475.108 102.548L476.642 101.264ZM472.747 94.362C471.704 91.6322 471.172 88.4754 471.172 84.875H469.172C469.172 88.6704 469.733 92.0762 470.878 95.0755L472.747 94.362ZM471.172 84.875C471.172 81.8327 471.552 79.0947 472.3 76.6521L470.388 76.0667C469.573 78.7282 469.172 81.6673 469.172 84.875H471.172ZM472.296 76.6642C473.095 74.1679 474.235 72.0457 475.706 70.2808L474.169 69.0004C472.515 70.9856 471.259 73.3425 470.391 76.0546L472.296 76.6642ZM475.716 70.268C477.131 68.5123 478.944 67.0616 481.174 65.9217L480.264 64.1408C477.806 65.3967 475.765 67.019 474.159 69.0133L475.716 70.268ZM481.166 65.9257C483.399 64.809 486.028 64.2344 489.078 64.2344V62.2344C485.775 62.2344 482.83 62.8577 480.272 64.1368L481.166 65.9257ZM489.078 64.2344C491.585 64.2344 493.905 64.7737 496.053 65.8476L496.947 64.0587C494.512 62.8409 491.884 62.2344 489.078 62.2344V64.2344ZM496.053 65.8476C498.226 66.9343 499.891 68.2969 501.085 69.9205L502.696 68.7357C501.286 66.8177 499.357 65.2636 496.947 64.0587L496.053 65.8476ZM501.095 69.9346C503.234 72.7389 504.406 77.5388 504.406 84.5625H506.406C506.406 77.4195 505.234 72.0632 502.686 68.7217L501.095 69.9346ZM504.406 84.5625V89.3281H506.406V84.5625H504.406ZM505.406 88.3281H480.797V90.3281H505.406V88.3281ZM534.781 72.8438V73.8438H535.781V72.8438H534.781ZM525.484 74.7969L525.976 75.6674L525.985 75.6627L525.993 75.6578L525.484 74.7969ZM522.203 77.5312L521.446 76.8776L521.438 76.8877L521.429 76.898L522.203 77.5312ZM520.328 81.75L521.31 81.9415L521.311 81.9343L520.328 81.75ZM519.703 107.062V108.062H520.703V107.062H519.703ZM509.938 107.062H508.938V108.062H509.938V107.062ZM509.938 64.1719V63.1719H508.938V64.1719H509.938ZM519.703 64.1719H520.703V63.1719H519.703V64.1719ZM519.703 69.0938H518.703V72.0938L520.503 69.6938L519.703 69.0938ZM522.672 66.2812L523.243 67.1022L523.247 67.0991L522.672 66.2812ZM534.781 63.2344H535.781V62.2244L534.771 62.2344L534.781 63.2344ZM534.781 71.8438C532.308 71.8438 530.34 72 528.923 72.3401L529.39 74.2849C530.577 74 532.359 73.8438 534.781 73.8438V71.8438ZM528.923 72.3401C527.525 72.6757 526.208 73.2079 524.976 73.9359L525.993 75.6578C527.053 75.0317 528.184 74.5743 529.39 74.2849L528.923 72.3401ZM524.992 73.9263C523.685 74.6653 522.504 75.6535 521.446 76.8776L522.96 78.1849C523.882 77.1173 524.888 76.2826 525.976 75.6674L524.992 73.9263ZM521.429 76.898C520.371 78.1914 519.684 79.7585 519.345 81.5657L521.311 81.9343C521.597 80.4082 522.16 79.1627 522.977 78.1645L521.429 76.898ZM519.347 81.5585C518.915 83.7712 518.703 86.2853 518.703 89.0938H520.703C520.703 86.3814 520.908 83.9997 521.31 81.9415L519.347 81.5585ZM518.703 89.0938V107.062H520.703V89.0938H518.703ZM519.703 106.062H509.938V108.062H519.703V106.062ZM510.938 107.062V64.1719H508.938V107.062H510.938ZM509.938 65.1719H519.703V63.1719H509.938V65.1719ZM518.703 64.1719V69.0938H520.703V64.1719H518.703ZM520.503 69.6938C521.213 68.7471 522.122 67.8818 523.243 67.1022L522.101 65.4603C520.826 66.3474 519.756 67.3571 518.903 68.4937L520.503 69.6938ZM523.247 67.0991C525.828 65.2833 529.633 64.2854 534.791 64.2343L534.771 62.2344C529.409 62.2875 525.141 63.3209 522.096 65.4634L523.247 67.0991ZM533.781 63.2344V72.8438H535.781V63.2344H533.781Z" fill="white"/>
</g>
<g filter="url(#filter1_d)">
<path d="M91.1703 115.19H12.9749C9.89238 115.19 7.39336 112.691 7.39336 109.608L4 43.749C4 40.6664 6.49902 38.1675 9.58151 38.1675H94.5634C97.6461 38.1675 100.145 40.6666 100.145 43.749L96.7516 109.608C96.7518 112.691 94.2528 115.19 91.1703 115.19Z" fill="url(#paint0_linear)"/>
<path d="M94.5636 115.189H9.58151C6.49902 115.189 4 112.69 4 109.607C4 108.051 4.64285 106.563 5.77642 105.496L47.7381 66.0079C50.1734 63.7163 53.9717 63.7163 56.407 66.0079L98.3687 105.496C99.5025 106.563 100.145 108.051 100.145 109.607C100.145 112.69 97.6461 115.189 94.5636 115.189Z" fill="url(#paint1_linear)"/>
<path d="M4.79838 95.1459V109.607C4.79838 112.69 7.25593 115.189 10.2873 115.189H93.8578C96.8892 115.189 99.3468 112.69 99.3468 109.607V95.1459H4.79838Z" fill="url(#paint2_linear)"/>
<path d="M4 43.7492V109.608C4 112.691 6.49902 115.19 9.58151 115.19H13.1935V38.1675H9.58151C6.49902 38.1675 4 40.6666 4 43.7492H4Z" fill="url(#paint3_linear)"/>
<path d="M5.96494 47.8595L77.8998 115.189H94.5636C97.6463 115.189 100.145 112.69 100.145 109.608V43.7484C100.145 40.6657 97.6461 38.5439 94.5636 38.5439H9.5815C6.49901 38.5438 4.18851 40.6657 4.18851 43.7484C4.18851 45.305 4.83137 46.7926 5.96494 47.8595Z" fill="url(#paint4_linear)"/>
<path d="M100.145 43.7484V109.608C100.145 112.69 97.6461 115.189 94.5636 115.189H90.9516V38.1667H94.5636C97.6461 38.1667 100.145 40.6657 100.145 43.7484Z" fill="url(#paint5_linear)"/>
<path d="M94.5636 38.5438H90.9516V72.6651H100.145V44.1255C100.145 41.0428 97.6461 38.5438 94.5636 38.5438Z" fill="url(#paint6_linear)"/>
<path d="M9.58151 38.5438H13.1935V72.6651H4V44.1255C4 41.0428 6.49902 38.5438 9.58151 38.5438Z" fill="url(#paint7_linear)"/>
<path d="M94.5636 38.1675H9.58151C6.49902 38.1675 4 40.6666 4 43.7492C4 45.306 4.64285 46.2281 5.77642 47.2949L47.7381 86.7832C50.1734 89.0749 53.9717 89.0749 56.407 86.7832L98.3687 47.2947C99.5023 46.2279 100.145 45.3058 100.145 43.7492C100.145 40.6666 97.6461 38.1675 94.5636 38.1675Z" fill="url(#paint8_linear)"/>
<path d="M94.4472 38.1675C94.2249 38.1675 94.0111 38.2524 93.8494 38.4045L56.4071 73.64C53.9718 75.9317 50.1735 75.9317 47.7382 73.64L10.2961 38.4047C10.1343 38.2524 9.92034 38.1675 9.69826 38.1675C6.85029 38.1675 4.37295 40.2562 4.03927 43.0845C3.82794 44.876 4.48248 46.6425 5.77667 47.8603L47.7384 87.3486C50.1737 89.6403 53.972 89.6403 56.4073 87.3486L98.369 47.8603C99.6632 46.6423 100.318 44.876 100.106 43.0845C99.7725 40.2562 97.2952 38.1675 94.4472 38.1675Z" fill="url(#paint9_linear)"/>
<path d="M33.1514 18.0463H29.8624V14.7575C29.8624 13.3758 28.7423 12.2559 27.3608 12.2559C25.9794 12.2559 24.8591 13.376 24.8591 14.7575V18.0465H21.5699C20.1883 18.0465 19.0682 19.1666 19.0682 20.5482C19.0682 21.9299 20.1883 23.05 21.5699 23.05H24.8591V26.3392C24.8591 27.7208 25.9792 28.8409 27.3608 28.8409C28.7425 28.8409 29.8624 27.7208 29.8624 26.3392V23.05H33.1514C34.5331 23.05 35.6532 21.9299 35.6532 20.5482C35.6532 19.1666 34.5331 18.0463 33.1514 18.0463Z" fill="#F1F1FA"/>
<path d="M86.2624 60.9185H82.9734V57.6294C82.9734 56.2478 81.8533 55.1279 80.4716 55.1279C79.09 55.1279 77.9699 56.248 77.9699 57.6294V60.9185H74.6807C73.2991 60.9185 72.1791 62.0386 72.1791 63.42C72.1791 64.8015 73.2992 65.9218 74.6807 65.9218H77.9699V69.211C77.9699 70.5926 79.09 71.7125 80.4716 71.7125C81.8533 71.7125 82.9734 70.5924 82.9734 69.211V65.9218H86.2624C87.644 65.9218 88.7641 64.8017 88.7641 63.42C88.7641 62.0384 87.6439 60.9185 86.2624 60.9185Z" fill="#DED8F8"/>
<path d="M84.8664 33.4233C86.0789 33.4233 87.1419 32.514 87.3362 31.3192C87.509 30.2565 86.9536 29.1694 85.9912 28.6871C85.1373 28.2591 84.0918 28.3598 83.3358 28.9435C82.5056 29.5844 82.1653 30.7112 82.4932 31.7057C82.8265 32.7163 83.8008 33.4233 84.8664 33.4233Z" fill="#CAC5EF"/>
<path d="M53.0065 11.6872C52.074 11.1182 50.8612 11.222 50.0394 11.9422C49.267 12.6192 48.9946 13.7419 49.3567 14.6999C49.72 15.661 50.6662 16.3189 51.6959 16.3189C52.8508 16.3189 53.8772 15.4927 54.1346 14.3707C54.3703 13.3427 53.9073 12.2369 53.0065 11.6872Z" fill="#DED8F8"/>
<path d="M65.2705 72.4767C64.4014 71.882 63.2134 71.9007 62.3672 72.5303C61.5123 73.1664 61.1457 74.3113 61.4825 75.324C61.8194 76.3371 62.7882 77.0408 63.8574 77.0408C64.9939 77.0408 66.0073 76.2439 66.2835 75.1446C66.5352 74.144 66.1213 73.0589 65.2705 72.4767Z" fill="#F1F1FA"/>
<path d="M50.3466 43.3452C49.3422 42.3408 49.3422 40.7125 50.3466 39.7081L89.3016 0.753281C90.306 -0.251109 91.9343 -0.251109 92.9387 0.753281C93.9431 1.75767 93.9431 3.38604 92.9387 4.39043L53.9838 43.3452C52.9794 44.3496 51.351 44.3496 50.3466 43.3452Z" fill="#2973F4"/>
<path d="M92.9385 0.753279L50.3466 43.3452C51.351 44.3496 52.9794 44.3496 53.9838 43.3452L92.9385 4.39043C93.9429 3.38604 93.9429 1.7575 92.9385 0.753279Z" fill="#425796"/>
<path d="M55.3882 57.2162C55.3882 57.2162 46.199 68.0389 40.8846 83.5035C40.4322 84.8199 39.0146 85.5369 37.6863 85.1212C34.6273 84.1639 28.8241 81.3539 20.581 73.1108C12.3381 64.8679 9.52789 59.0647 8.57078 56.0056C8.15507 54.677 8.87195 53.2596 10.1885 52.8073C25.6531 47.4928 36.4758 38.3036 36.4758 38.3036L47.1445 46.5475L55.3882 57.2162Z" fill="#F4D844"/>
<path d="M40.8846 83.5035C46.199 68.0388 55.3882 57.2162 55.3882 57.2162L47.1443 46.5475L20.581 73.1108C28.8239 81.3537 34.6272 84.1639 37.6863 85.1212C39.0148 85.5368 40.4323 84.8199 40.8846 83.5035Z" fill="#ECBD2C"/>
<path d="M30.4464 81.431L34.4257 77.4517C35.4301 76.4473 35.4301 74.8189 34.4257 73.8145C33.4213 72.8102 31.7929 72.8102 30.7886 73.8145L26.2857 78.3174C27.7897 79.553 29.1772 80.5784 30.4464 81.431Z" fill="#E28023"/>
<path d="M19.8773 59.2661C18.8729 58.2617 17.2445 58.2617 16.2402 59.2661L12.2609 63.2454C13.1136 64.5146 14.1388 65.9019 15.3744 67.4061L19.8773 62.9033C20.8815 61.8989 20.8815 60.2705 19.8773 59.2661Z" fill="#ECBD2C"/>
<path d="M20.581 73.1108C21.2108 73.7406 21.8246 74.335 22.4258 74.903L32.0009 65.3279C33.0053 64.3235 33.0053 62.6952 32.0009 61.6908C30.9965 60.6864 29.3681 60.6864 28.3637 61.6908L18.7887 71.2659C19.3569 71.8672 19.9512 72.481 20.581 73.1108Z" fill="#ECBD2C"/>
<path d="M32.0009 61.6909L20.581 73.1108C21.2108 73.7406 21.8246 74.335 22.4258 74.903L32.0009 65.3279C33.0053 64.3237 33.0053 62.6952 32.0009 61.6909Z" fill="#E28023"/>
<path d="M55.3852 57.2425L45.9173 47.7746L36.4493 38.3066L43.3249 31.431C44.3018 30.4541 45.8857 30.4541 46.8628 31.431L62.261 46.8292C63.2379 47.8061 63.2379 49.3902 62.261 50.3671L55.3852 57.2425Z" fill="#2973F4"/>
<path d="M62.2112 46.7796L54.5618 39.13L45.9173 47.7745L55.3854 57.2425L62.2113 50.4166C63.2156 49.4123 63.2156 47.784 62.2112 46.7796Z" fill="#425796"/>
</g>
<defs>
<filter id="filter0_di" x="110.016" y="45.4375" width="429.766" height="71.702" filterUnits="userSpaceOnUse" color-interpolation-filters="sRGB">
<feFlood flood-opacity="0" result="BackgroundImageFix"/>
<feColorMatrix in="SourceAlpha" type="matrix" values="0 0 0 0 0 0 0 0 0 0 0 0 0 0 0 0 0 0 127 0"/>
<feOffset dy="4"/>
<feGaussianBlur stdDeviation="2"/>
<feColorMatrix type="matrix" values="0 0 0 0 0 0 0 0 0 0 0 0 0 0 0 0 0 0 0.25 0"/>
<feBlend mode="normal" in2="BackgroundImageFix" result="effect1_dropShadow"/>
<feBlend mode="normal" in="SourceGraphic" in2="effect1_dropShadow" result="shape"/>
<feColorMatrix in="SourceAlpha" type="matrix" values="0 0 0 0 0 0 0 0 0 0 0 0 0 0 0 0 0 0 127 0" result="hardAlpha"/>
<feOffset dy="4"/>
<feGaussianBlur stdDeviation="2"/>
<feComposite in2="hardAlpha" operator="arithmetic" k2="-1" k3="1"/>
<feColorMatrix type="matrix" values="0 0 0 0 0 0 0 0 0 0 0 0 0 0 0 0 0 0 0.1 0"/>
<feBlend mode="normal" in2="shape" result="effect2_innerShadow"/>
</filter>
<filter id="filter1_d" x="0" y="-1.14441e-05" width="104.145" height="123.19" filterUnits="userSpaceOnUse" color-interpolation-filters="sRGB">
<feFlood flood-opacity="0" result="BackgroundImageFix"/>
<feColorMatrix in="SourceAlpha" type="matrix" values="0 0 0 0 0 0 0 0 0 0 0 0 0 0 0 0 0 0 127 0"/>
<feOffset dy="4"/>
<feGaussianBlur stdDeviation="2"/>
<feColorMatrix type="matrix" values="0 0 0 0 0 0 0 0 0 0 0 0 0 0 0 0 0 0 0.25 0"/>
<feBlend mode="normal" in2="BackgroundImageFix" result="effect1_dropShadow"/>
<feBlend mode="normal" in="SourceGraphic" in2="effect1_dropShadow" result="shape"/>
</filter>
<linearGradient id="paint0_linear" x1="45.2808" y1="58.4557" x2="75.6885" y2="123.735" gradientUnits="userSpaceOnUse">
<stop stop-color="#E3E5E4"/>
<stop offset="1" stop-color="#CBD0E4"/>
</linearGradient>
<linearGradient id="paint1_linear" x1="43.0317" y1="100.553" x2="58.7373" y2="116.259" gradientUnits="userSpaceOnUse">
<stop stop-color="#EBEFF0"/>
<stop offset="1" stop-color="#E3E5E4"/>
</linearGradient>
<linearGradient id="paint2_linear" x1="52.0726" y1="103.089" x2="52.0726" y2="119.217" gradientUnits="userSpaceOnUse">
<stop stop-color="#CBD0E4" stop-opacity="0"/>
<stop offset="1" stop-color="#6A7D83"/>
</linearGradient>
<linearGradient id="paint3_linear" x1="7.26762" y1="76.6788" x2="14.9383" y2="76.6788" gradientUnits="userSpaceOnUse">
<stop stop-color="#FF637B"/>
<stop offset="1" stop-color="#F90217"/>
</linearGradient>
<linearGradient id="paint4_linear" x1="83.1706" y1="76.4992" x2="71.3566" y2="64.0569" gradientUnits="userSpaceOnUse">
<stop stop-color="#CBD0E4" stop-opacity="0"/>
<stop offset="1" stop-color="#6A7D83"/>
</linearGradient>
<linearGradient id="paint5_linear" x1="95.1179" y1="76.6779" x2="101.025" y2="76.6779" gradientUnits="userSpaceOnUse">
<stop stop-color="#FF637B"/>
<stop offset="1" stop-color="#F90217"/>
</linearGradient>
<linearGradient id="paint6_linear" x1="98.4045" y1="60.5685" x2="90.4867" y2="51.6138" gradientUnits="userSpaceOnUse">
<stop stop-color="#F90217" stop-opacity="0"/>
<stop offset="0.2669" stop-color="#E7010F" stop-opacity="0.267"/>
<stop offset="0.7232" stop-color="#CE0004" stop-opacity="0.723"/>
<stop offset="1" stop-color="#C50000"/>
</linearGradient>
<linearGradient id="paint7_linear" x1="5.7406" y1="60.5685" x2="13.6584" y2="51.6138" gradientUnits="userSpaceOnUse">
<stop stop-color="#F90217" stop-opacity="0"/>
<stop offset="0.2669" stop-color="#E7010F" stop-opacity="0.267"/>
<stop offset="0.7232" stop-color="#CE0004" stop-opacity="0.723"/>
<stop offset="1" stop-color="#C50000"/>
</linearGradient>
<linearGradient id="paint8_linear" x1="48.1902" y1="38.7978" x2="69.2635" y2="64.3667" gradientUnits="userSpaceOnUse">
<stop stop-color="#EBEFF0"/>
<stop offset="1" stop-color="#E3E5E4"/>
</linearGradient>
<linearGradient id="paint9_linear" x1="53.2087" y1="45.6812" x2="77.5907" y2="86.7785" gradientUnits="userSpaceOnUse">
<stop stop-color="#FF637B"/>
<stop offset="1" stop-color="#F90217"/>
</linearGradient>
</defs>
</svg>
