<svg width="539" height="124" viewBox="0 0 539 124" fill="none" xmlns="http://www.w3.org/2000/svg">
<g filter="url(#filter0_d)">
<path d="M158.922 66.3594H148.453C148.453 63.5469 148.167 61.5677 147.594 60.4219C147.073 59.224 146.396 58.2344 145.562 57.4531C144.729 56.8281 143.766 56.3333 142.672 55.9688C141.63 55.6042 140.641 55.3958 139.703 55.3438C137.88 55.3438 136.109 55.7604 134.391 56.5938C132.724 57.375 131.214 58.625 129.859 60.3438C128.453 62.2708 127.333 64.6927 126.5 67.6094C125.667 70.474 125.25 73.3906 125.25 76.3594C125.25 78.2344 125.484 80.5 125.953 83.1562C126.474 85.8125 127.333 88.3906 128.531 90.8906C129.677 93.2344 131.318 95.1875 133.453 96.75C135.589 98.3125 138.245 99.0938 141.422 99.0938C144.026 99.0938 146.344 98.7812 148.375 98.1562V82.7656H136.188V73.625H158.453V103C153.297 106.333 147.073 108 139.781 108C135.458 108 131.682 107.036 128.453 105.109C125.276 103.13 122.672 100.604 120.641 97.5312C118.609 94.5625 117.151 91.2552 116.266 87.6094C115.432 83.9115 115.016 80.1615 115.016 76.3594C115.016 72.5052 115.458 68.8073 116.344 65.2656C117.281 61.724 118.792 58.625 120.875 55.9688C122.906 53.2604 125.484 50.9948 128.609 49.1719C131.734 47.349 135.432 46.4375 139.703 46.4375C142.307 46.4375 144.781 46.9062 147.125 47.8438C149.469 48.7812 151.5 50.0312 153.219 51.5938C154.99 53.1042 156.37 54.9531 157.359 57.1406C158.401 59.3281 158.922 62.401 158.922 66.3594ZM270.875 58.8594H259.703V47.4531H270.875V58.8594ZM270.406 107.062H260.328V64.1719H270.406V107.062ZM365.094 80.8906H380.016C380.016 78.4427 379.573 76.3594 378.688 74.6406C378.167 73.7552 377.438 73.0521 376.5 72.5312C375.615 71.9583 374.625 71.6719 373.531 71.6719C371.292 71.6719 369.286 72.7917 367.516 75.0312C366.318 76.5417 365.51 78.4948 365.094 80.8906ZM365.328 89.3281C365.484 90.0573 365.693 90.8125 365.953 91.5938C366.37 92.7917 367.021 93.9896 367.906 95.1875C368.844 96.3854 369.99 97.4271 371.344 98.3125C371.812 98.5729 372.516 98.8333 373.453 99.0938C374.391 99.3542 375.536 99.4844 376.891 99.4844C378.453 99.4844 380.224 99.224 382.203 98.7031C384.182 98.1302 386.396 97.1146 388.844 95.6562V104.406C385.979 106.073 383.245 107.167 380.641 107.688C378.036 108.156 375.406 108.26 372.75 108C370.458 107.688 368.167 106.984 365.875 105.891C363.635 104.745 361.812 103.417 360.406 101.906C358.792 99.9792 357.438 97.5833 356.344 94.7188C355.25 91.8542 354.703 88.5729 354.703 84.875C354.703 81.75 355.094 78.9115 355.875 76.3594C356.708 73.7552 357.906 71.5156 359.469 69.6406C360.979 67.7656 362.906 66.2292 365.25 65.0312C367.646 63.8333 370.432 63.2344 373.609 63.2344C376.266 63.2344 378.74 63.8073 381.031 64.9531C383.323 66.099 385.12 67.5573 386.422 69.3281C388.766 72.401 389.938 77.4792 389.938 84.5625V89.3281H365.328ZM534.781 72.8438C532.333 72.8438 530.458 73 529.156 73.3125C527.854 73.625 526.63 74.1198 525.484 74.7969C524.286 75.474 523.193 76.3854 522.203 77.5312C521.266 78.6771 520.641 80.0833 520.328 81.75C519.911 83.8854 519.703 86.3333 519.703 89.0938V107.062H509.938V64.1719H519.703V69.0938C520.484 68.0521 521.474 67.1146 522.672 66.2812C525.484 64.3021 529.521 63.2865 534.781 63.2344V72.8438Z" fill="#2973F4"/>
<path d="M216.031 107.062H206.344V83.1562C206.344 81.5417 206.266 79.9792 206.109 78.4688C206.005 76.9062 205.797 75.7344 205.484 74.9531C205.12 74.0156 204.651 73.3906 204.078 73.0781C203.557 72.7135 202.932 72.5312 202.203 72.5312C200.849 72.5312 199.521 73.4167 198.219 75.1875C196.969 76.9062 196.109 79.4583 195.641 82.8438C195.484 83.9375 195.38 84.9271 195.328 85.8125C195.276 86.6458 195.25 87.6354 195.25 88.7812V107.062H185.797V83.1562C185.797 81.5417 185.719 80.0052 185.562 78.5469C185.458 77.0885 185.224 75.8906 184.859 74.9531C184.495 74.0156 184.052 73.3906 183.531 73.0781C183.01 72.7135 182.307 72.5312 181.422 72.5312C180.484 72.5312 179.599 72.8958 178.766 73.625C177.984 74.3542 177.255 75.5521 176.578 77.2188C175.953 78.8854 175.484 80.6562 175.172 82.5312C174.911 84.3542 174.755 86.3333 174.703 88.4688V107.062H165.016V64.1719H174.703V67.375C175.797 66.0208 176.969 65.0052 178.219 64.3281C179.521 63.599 180.771 63.2344 181.969 63.2344C185.719 63.2344 188.635 64.3542 190.719 66.5938C191.552 67.5833 192.229 68.599 192.75 69.6406C193.062 69.1198 193.453 68.5729 193.922 68C196.37 64.8229 199.365 63.2344 202.906 63.2344C206.76 63.2344 209.911 64.5625 212.359 67.2188C214.807 69.875 216.031 73.8594 216.031 79.1719V107.062ZM335.719 66.3594H325.25C325.25 63.5469 324.964 61.5417 324.391 60.3438C323.87 59.1458 323.193 58.1823 322.359 57.4531C320.745 56.0469 318.792 55.3438 316.5 55.3438C314.677 55.3438 312.932 55.7604 311.266 56.5938C309.599 57.375 308.062 58.651 306.656 60.4219C305.25 62.2969 304.13 64.6927 303.297 67.6094C302.464 70.526 302.047 73.4688 302.047 76.4375C302.047 78.3125 302.281 80.5781 302.75 83.2344C303.219 85.8906 304.078 88.4948 305.328 91.0469C306.578 93.3906 308.245 95.3438 310.328 96.9062C312.411 98.4167 315.042 99.1719 318.219 99.1719C320.562 99.1719 322.932 98.7552 325.328 97.9219C327.776 97.0365 330.641 95.4479 333.922 93.1562V103.781C333.609 103.99 332.828 104.406 331.578 105.031C330.38 105.656 329.104 106.177 327.75 106.594C324.312 107.583 320.589 108.078 316.578 108.078C312.255 108.078 308.505 107.141 305.328 105.266C302.151 103.339 299.521 100.839 297.438 97.7656C295.406 94.6927 293.948 91.3333 293.062 87.6875C292.229 83.9896 291.812 80.2396 291.812 76.4375C291.812 72.5833 292.255 68.8854 293.141 65.3438C294.078 61.75 295.589 58.625 297.672 55.9688C299.703 53.2604 302.281 50.9948 305.406 49.1719C308.531 47.349 312.229 46.4375 316.5 46.4375C319.104 46.4375 321.578 46.9062 323.922 47.8438C326.266 48.7812 328.297 50.0312 330.016 51.5938C331.786 53.1042 333.167 54.9531 334.156 57.1406C335.198 59.3281 335.719 62.401 335.719 66.3594ZM465.953 107.062H456.031V80.5C456.031 77.6354 455.458 75.3438 454.312 73.625C453.531 72.5833 452.255 72.0625 450.484 72.0625C448.974 72.0625 447.464 72.9219 445.953 74.6406C444.443 76.3594 443.323 79.0417 442.594 82.6875C442.385 83.5729 442.229 84.4583 442.125 85.3438C442.073 86.2292 442.047 87.2708 442.047 88.4688V107.062H432.203V64.1719H442.047V67.7656C443.036 66.4115 444.391 65.3177 446.109 64.4844C447.828 63.651 449.417 63.2344 450.875 63.2344C455.667 63.2344 459.365 64.5365 461.969 67.1406C464.625 69.849 465.953 73.7292 465.953 78.7812V107.062Z" fill="#FE485F"/>
<path d="M253.844 107.062H243.922V103.859C241.318 106.62 237.281 108 231.812 108C230.667 108 229.312 107.714 227.75 107.141C226.24 106.516 224.938 105.708 223.844 104.719C222.698 103.573 221.812 102.297 221.188 100.891C220.562 99.4323 220.25 97.7917 220.25 95.9688C220.25 92.5833 221.135 89.7188 222.906 87.375C224.729 85.0312 226.917 83.3646 229.469 82.375C231.083 81.75 232.802 81.2812 234.625 80.9688C236.5 80.6562 237.984 80.5 239.078 80.5H243.922V78.4688C243.922 78.1042 243.818 77.4792 243.609 76.5938C243.453 75.6562 243.167 74.8229 242.75 74.0938C242.281 73.3646 241.604 72.7917 240.719 72.375C239.885 71.9062 238.87 71.6719 237.672 71.6719C236.161 71.6719 234.833 72.1146 233.688 73C232.542 73.8333 231.969 75.526 231.969 78.0781H221.266C221.266 75.2656 221.578 73.1042 222.203 71.5938C222.828 70.0833 223.844 68.7292 225.25 67.5312C226.552 66.3333 228.297 65.3177 230.484 64.4844C232.672 63.651 235.068 63.2344 237.672 63.2344C242.984 63.2344 246.995 64.7188 249.703 67.6875C252.464 70.6042 253.844 74.0938 253.844 78.1562V107.062ZM243.922 91.2031V88.5469C243.193 88.5469 242.359 88.5729 241.422 88.625C240.484 88.625 238.948 88.8073 236.812 89.1719C235.25 89.4323 233.818 90.0573 232.516 91.0469C231.057 92.1927 230.328 93.5729 230.328 95.1875C230.328 96.8021 230.745 97.9479 231.578 98.625C232.411 99.25 233.427 99.5625 234.625 99.5625C235.094 99.5625 235.823 99.4844 236.812 99.3281C237.802 99.1198 238.688 98.7552 239.469 98.2344C241.135 97.0885 242.411 95.7083 243.297 94.0938C243.714 93.3646 243.922 92.401 243.922 91.2031ZM350.172 107.062H340.094V47.4531H350.172V107.062ZM480.562 80.8906H495.484C495.484 78.4427 495.042 76.3594 494.156 74.6406C493.635 73.7552 492.906 73.0521 491.969 72.5312C491.083 71.9583 490.094 71.6719 489 71.6719C486.76 71.6719 484.755 72.7917 482.984 75.0312C481.786 76.5417 480.979 78.4948 480.562 80.8906ZM480.797 89.3281C480.953 90.0573 481.161 90.8125 481.422 91.5938C481.839 92.7917 482.49 93.9896 483.375 95.1875C484.312 96.3854 485.458 97.4271 486.812 98.3125C487.281 98.5729 487.984 98.8333 488.922 99.0938C489.859 99.3542 491.005 99.4844 492.359 99.4844C493.922 99.4844 495.693 99.224 497.672 98.7031C499.651 98.1302 501.865 97.1146 504.312 95.6562V104.406C501.448 106.073 498.714 107.167 496.109 107.688C493.505 108.156 490.875 108.26 488.219 108C485.927 107.688 483.635 106.984 481.344 105.891C479.104 104.745 477.281 103.417 475.875 101.906C474.26 99.9792 472.906 97.5833 471.812 94.7188C470.719 91.8542 470.172 88.5729 470.172 84.875C470.172 81.75 470.562 78.9115 471.344 76.3594C472.177 73.7552 473.375 71.5156 474.938 69.6406C476.448 67.7656 478.375 66.2292 480.719 65.0312C483.115 63.8333 485.901 63.2344 489.078 63.2344C491.734 63.2344 494.208 63.8073 496.5 64.9531C498.792 66.099 500.589 67.5573 501.891 69.3281C504.234 72.401 505.406 77.4792 505.406 84.5625V89.3281H480.797Z" fill="#F5BA28"/>
<path d="M287.359 107.062H277.281V47.4531H287.359V107.062ZM426.031 107.062H416.109V103.859C413.505 106.62 409.469 108 404 108C402.854 108 401.5 107.714 399.938 107.141C398.427 106.516 397.125 105.708 396.031 104.719C394.885 103.573 394 102.297 393.375 100.891C392.75 99.4323 392.438 97.7917 392.438 95.9688C392.438 92.5833 393.323 89.7188 395.094 87.375C396.917 85.0312 399.104 83.3646 401.656 82.375C403.271 81.75 404.99 81.2812 406.812 80.9688C408.688 80.6562 410.172 80.5 411.266 80.5H416.109V78.4688C416.109 78.1042 416.005 77.4792 415.797 76.5938C415.641 75.6562 415.354 74.8229 414.938 74.0938C414.469 73.3646 413.792 72.7917 412.906 72.375C412.073 71.9062 411.057 71.6719 409.859 71.6719C408.349 71.6719 407.021 72.1146 405.875 73C404.729 73.8333 404.156 75.526 404.156 78.0781H393.453C393.453 75.2656 393.766 73.1042 394.391 71.5938C395.016 70.0833 396.031 68.7292 397.438 67.5312C398.74 66.3333 400.484 65.3177 402.672 64.4844C404.859 63.651 407.255 63.2344 409.859 63.2344C415.172 63.2344 419.182 64.7188 421.891 67.6875C424.651 70.6042 426.031 74.0938 426.031 78.1562V107.062ZM416.109 91.2031V88.5469C415.38 88.5469 414.547 88.5729 413.609 88.625C412.672 88.625 411.135 88.8073 409 89.1719C407.438 89.4323 406.005 90.0573 404.703 91.0469C403.245 92.1927 402.516 93.5729 402.516 95.1875C402.516 96.8021 402.932 97.9479 403.766 98.625C404.599 99.25 405.615 99.5625 406.812 99.5625C407.281 99.5625 408.01 99.4844 409 99.3281C409.99 99.1198 410.875 98.7552 411.656 98.2344C413.323 97.0885 414.599 95.7083 415.484 94.0938C415.901 93.3646 416.109 92.401 416.109 91.2031Z" fill="#46A956"/>
</g>
<g filter="url(#filter1_d)">
<path d="M91.1703 115.19H12.9749C9.89238 115.19 7.39336 112.691 7.39336 109.608L4 43.749C4 40.6664 6.49902 38.1675 9.58151 38.1675H94.5634C97.6461 38.1675 100.145 40.6666 100.145 43.749L96.7516 109.608C96.7518 112.691 94.2528 115.19 91.1703 115.19Z" fill="url(#paint0_linear)"/>
<path d="M94.5636 115.189H9.58151C6.49902 115.189 4 112.69 4 109.607C4 108.051 4.64285 106.563 5.77642 105.496L47.7381 66.0079C50.1734 63.7163 53.9717 63.7163 56.407 66.0079L98.3687 105.496C99.5025 106.563 100.145 108.051 100.145 109.607C100.145 112.69 97.6461 115.189 94.5636 115.189Z" fill="url(#paint1_linear)"/>
<path d="M4.79838 95.1459V109.607C4.79838 112.69 7.25593 115.189 10.2873 115.189H93.8578C96.8892 115.189 99.3468 112.69 99.3468 109.607V95.1459H4.79838Z" fill="url(#paint2_linear)"/>
<path d="M4 43.7492V109.608C4 112.691 6.49902 115.19 9.58151 115.19H13.1935V38.1675H9.58151C6.49902 38.1675 4 40.6666 4 43.7492H4Z" fill="url(#paint3_linear)"/>
<path d="M5.96494 47.8595L77.8998 115.189H94.5636C97.6463 115.189 100.145 112.69 100.145 109.608V43.7484C100.145 40.6657 97.6461 38.5439 94.5636 38.5439H9.5815C6.49901 38.5438 4.18851 40.6657 4.18851 43.7484C4.18851 45.305 4.83137 46.7926 5.96494 47.8595Z" fill="url(#paint4_linear)"/>
<path d="M100.145 43.7484V109.608C100.145 112.69 97.6461 115.189 94.5636 115.189H90.9516V38.1667H94.5636C97.6461 38.1667 100.145 40.6657 100.145 43.7484Z" fill="url(#paint5_linear)"/>
<path d="M94.5636 38.5438H90.9516V72.6651H100.145V44.1255C100.145 41.0428 97.6461 38.5438 94.5636 38.5438Z" fill="url(#paint6_linear)"/>
<path d="M9.58151 38.5438H13.1935V72.6651H4V44.1255C4 41.0428 6.49902 38.5438 9.58151 38.5438Z" fill="url(#paint7_linear)"/>
<path d="M94.5636 38.1675H9.58151C6.49902 38.1675 4 40.6666 4 43.7492C4 45.306 4.64285 46.2281 5.77642 47.2949L47.7381 86.7832C50.1734 89.0749 53.9717 89.0749 56.407 86.7832L98.3687 47.2947C99.5023 46.2279 100.145 45.3058 100.145 43.7492C100.145 40.6666 97.6461 38.1675 94.5636 38.1675Z" fill="url(#paint8_linear)"/>
<path d="M94.4472 38.1675C94.2249 38.1675 94.0111 38.2524 93.8494 38.4045L56.4071 73.64C53.9718 75.9317 50.1735 75.9317 47.7382 73.64L10.2961 38.4047C10.1343 38.2524 9.92034 38.1675 9.69826 38.1675C6.85029 38.1675 4.37295 40.2562 4.03927 43.0845C3.82794 44.876 4.48248 46.6425 5.77667 47.8603L47.7384 87.3486C50.1737 89.6403 53.972 89.6403 56.4073 87.3486L98.369 47.8603C99.6632 46.6423 100.318 44.876 100.106 43.0845C99.7725 40.2562 97.2952 38.1675 94.4472 38.1675Z" fill="url(#paint9_linear)"/>
<path d="M33.1514 18.0463H29.8624V14.7575C29.8624 13.3758 28.7423 12.2559 27.3608 12.2559C25.9794 12.2559 24.8591 13.376 24.8591 14.7575V18.0465H21.5699C20.1883 18.0465 19.0682 19.1666 19.0682 20.5482C19.0682 21.9299 20.1883 23.05 21.5699 23.05H24.8591V26.3392C24.8591 27.7208 25.9792 28.8409 27.3608 28.8409C28.7425 28.8409 29.8624 27.7208 29.8624 26.3392V23.05H33.1514C34.5331 23.05 35.6532 21.9299 35.6532 20.5482C35.6532 19.1666 34.5331 18.0463 33.1514 18.0463Z" fill="#F1F1FA"/>
<path d="M86.2624 60.9185H82.9734V57.6294C82.9734 56.2478 81.8533 55.1279 80.4716 55.1279C79.09 55.1279 77.9699 56.248 77.9699 57.6294V60.9185H74.6807C73.2991 60.9185 72.1791 62.0386 72.1791 63.42C72.1791 64.8015 73.2992 65.9218 74.6807 65.9218H77.9699V69.211C77.9699 70.5926 79.09 71.7125 80.4716 71.7125C81.8533 71.7125 82.9734 70.5924 82.9734 69.211V65.9218H86.2624C87.644 65.9218 88.7641 64.8017 88.7641 63.42C88.7641 62.0384 87.6439 60.9185 86.2624 60.9185Z" fill="#DED8F8"/>
<path d="M84.8664 33.4233C86.0789 33.4233 87.1419 32.514 87.3362 31.3192C87.509 30.2565 86.9536 29.1694 85.9912 28.6871C85.1373 28.259 84.0918 28.3598 83.3358 28.9435C82.5056 29.5844 82.1653 30.7112 82.4932 31.7057C82.8265 32.7163 83.8008 33.4233 84.8664 33.4233Z" fill="#CAC5EF"/>
<path d="M53.0065 11.6872C52.074 11.1182 50.8612 11.222 50.0394 11.9422C49.267 12.6192 48.9946 13.7419 49.3567 14.6999C49.72 15.661 50.6662 16.3189 51.6959 16.3189C52.8508 16.3189 53.8772 15.4927 54.1346 14.3707C54.3703 13.3427 53.9073 12.2369 53.0065 11.6872Z" fill="#DED8F8"/>
<path d="M65.2705 72.4767C64.4014 71.882 63.2134 71.9007 62.3672 72.5303C61.5123 73.1664 61.1457 74.3113 61.4825 75.324C61.8194 76.3371 62.7882 77.0408 63.8574 77.0408C64.9939 77.0408 66.0073 76.2439 66.2835 75.1446C66.5352 74.144 66.1213 73.0589 65.2705 72.4767Z" fill="#F1F1FA"/>
<path d="M50.3466 43.3452C49.3422 42.3408 49.3422 40.7125 50.3466 39.7081L89.3016 0.753277C90.306 -0.251113 91.9343 -0.251113 92.9387 0.753277C93.9431 1.75767 93.9431 3.38603 92.9387 4.39042L53.9838 43.3452C52.9794 44.3496 51.351 44.3496 50.3466 43.3452Z" fill="#425796"/>
<path d="M92.9385 0.753273L50.3466 43.3452C51.351 44.3496 52.9794 44.3496 53.9838 43.3452L92.9385 4.39042C93.9429 3.38603 93.9429 1.7575 92.9385 0.753273Z" fill="#283758"/>
<path d="M55.3882 57.2162C55.3882 57.2162 46.199 68.0389 40.8846 83.5035C40.4322 84.8199 39.0146 85.5369 37.6863 85.1212C34.6273 84.1639 28.8241 81.3539 20.581 73.1108C12.3381 64.8679 9.52789 59.0647 8.57078 56.0056C8.15507 54.677 8.87195 53.2596 10.1885 52.8073C25.6531 47.4928 36.4758 38.3036 36.4758 38.3036L47.1445 46.5475L55.3882 57.2162Z" fill="#F4D844"/>
<path d="M40.8846 83.5035C46.199 68.0388 55.3882 57.2162 55.3882 57.2162L47.1443 46.5475L20.581 73.1108C28.8239 81.3537 34.6272 84.1639 37.6863 85.1212C39.0148 85.5368 40.4323 84.8199 40.8846 83.5035Z" fill="#ECBD2C"/>
<path d="M30.4464 81.431L34.4257 77.4517C35.4301 76.4473 35.4301 74.8189 34.4257 73.8145C33.4213 72.8102 31.7929 72.8102 30.7886 73.8145L26.2857 78.3174C27.7897 79.553 29.1772 80.5784 30.4464 81.431Z" fill="#E28023"/>
<path d="M19.8773 59.2661C18.8729 58.2617 17.2445 58.2617 16.2402 59.2661L12.2609 63.2454C13.1136 64.5146 14.1388 65.9019 15.3744 67.4061L19.8773 62.9033C20.8815 61.8989 20.8815 60.2705 19.8773 59.2661Z" fill="#ECBD2C"/>
<path d="M20.581 73.1108C21.2108 73.7406 21.8246 74.335 22.4258 74.903L32.0009 65.3279C33.0053 64.3235 33.0053 62.6952 32.0009 61.6908C30.9965 60.6864 29.3681 60.6864 28.3637 61.6908L18.7887 71.2659C19.3569 71.8672 19.9512 72.481 20.581 73.1108Z" fill="#ECBD2C"/>
<path d="M32.0009 61.6909L20.581 73.1108C21.2108 73.7406 21.8246 74.335 22.4258 74.903L32.0009 65.3279C33.0053 64.3237 33.0053 62.6952 32.0009 61.6909Z" fill="#E28023"/>
<path d="M55.3852 57.2425L36.4493 38.3066L43.3249 31.431C44.3018 30.4541 45.8857 30.4541 46.8628 31.431L62.261 46.8292C63.2379 47.8061 63.2379 49.3902 62.261 50.3671L55.3852 57.2425Z" fill="#425796"/>
<path d="M62.2112 46.7796L54.5618 39.13L45.9173 47.7745L55.3854 57.2425L62.2113 50.4166C63.2156 49.4123 63.2156 47.784 62.2112 46.7796Z" fill="#283758"/>
</g>
<defs>
<filter id="filter0_d" x="111.016" y="46.4375" width="427.766" height="69.702" filterUnits="userSpaceOnUse" color-interpolation-filters="sRGB">
<feFlood flood-opacity="0" result="BackgroundImageFix"/>
<feColorMatrix in="SourceAlpha" type="matrix" values="0 0 0 0 0 0 0 0 0 0 0 0 0 0 0 0 0 0 127 0"/>
<feOffset dy="4"/>
<feGaussianBlur stdDeviation="2"/>
<feColorMatrix type="matrix" values="0 0 0 0 0 0 0 0 0 0 0 0 0 0 0 0 0 0 0.1 0"/>
<feBlend mode="normal" in2="BackgroundImageFix" result="effect1_dropShadow"/>
<feBlend mode="normal" in="SourceGraphic" in2="effect1_dropShadow" result="shape"/>
</filter>
<filter id="filter1_d" x="0" y="-1.52588e-05" width="104.145" height="123.19" filterUnits="userSpaceOnUse" color-interpolation-filters="sRGB">
<feFlood flood-opacity="0" result="BackgroundImageFix"/>
<feColorMatrix in="SourceAlpha" type="matrix" values="0 0 0 0 0 0 0 0 0 0 0 0 0 0 0 0 0 0 127 0"/>
<feOffset dy="4"/>
<feGaussianBlur stdDeviation="2"/>
<feColorMatrix type="matrix" values="0 0 0 0 0 0 0 0 0 0 0 0 0 0 0 0 0 0 0.25 0"/>
<feBlend mode="normal" in2="BackgroundImageFix" result="effect1_dropShadow"/>
<feBlend mode="normal" in="SourceGraphic" in2="effect1_dropShadow" result="shape"/>
</filter>
<linearGradient id="paint0_linear" x1="45.2808" y1="58.4557" x2="75.6885" y2="123.735" gradientUnits="userSpaceOnUse">
<stop stop-color="#E3E5E4"/>
<stop offset="1" stop-color="#CBD0E4"/>
</linearGradient>
<linearGradient id="paint1_linear" x1="43.0317" y1="100.553" x2="58.7373" y2="116.259" gradientUnits="userSpaceOnUse">
<stop stop-color="#EBEFF0"/>
<stop offset="1" stop-color="#E3E5E4"/>
</linearGradient>
<linearGradient id="paint2_linear" x1="52.0726" y1="103.089" x2="52.0726" y2="119.217" gradientUnits="userSpaceOnUse">
<stop stop-color="#CBD0E4" stop-opacity="0"/>
<stop offset="1" stop-color="#6A7D83"/>
</linearGradient>
<linearGradient id="paint3_linear" x1="7.26762" y1="76.6788" x2="14.9383" y2="76.6788" gradientUnits="userSpaceOnUse">
<stop stop-color="#FF637B"/>
<stop offset="1" stop-color="#F90217"/>
</linearGradient>
<linearGradient id="paint4_linear" x1="83.1706" y1="76.4992" x2="71.3566" y2="64.0569" gradientUnits="userSpaceOnUse">
<stop stop-color="#CBD0E4" stop-opacity="0"/>
<stop offset="1" stop-color="#6A7D83"/>
</linearGradient>
<linearGradient id="paint5_linear" x1="95.1179" y1="76.6779" x2="101.025" y2="76.6779" gradientUnits="userSpaceOnUse">
<stop stop-color="#FF637B"/>
<stop offset="1" stop-color="#F90217"/>
</linearGradient>
<linearGradient id="paint6_linear" x1="98.4045" y1="60.5685" x2="90.4867" y2="51.6138" gradientUnits="userSpaceOnUse">
<stop stop-color="#F90217" stop-opacity="0"/>
<stop offset="0.2669" stop-color="#E7010F" stop-opacity="0.267"/>
<stop offset="0.7232" stop-color="#CE0004" stop-opacity="0.723"/>
<stop offset="1" stop-color="#C50000"/>
</linearGradient>
<linearGradient id="paint7_linear" x1="5.7406" y1="60.5685" x2="13.6584" y2="51.6138" gradientUnits="userSpaceOnUse">
<stop stop-color="#F90217" stop-opacity="0"/>
<stop offset="0.2669" stop-color="#E7010F" stop-opacity="0.267"/>
<stop offset="0.7232" stop-color="#CE0004" stop-opacity="0.723"/>
<stop offset="1" stop-color="#C50000"/>
</linearGradient>
<linearGradient id="paint8_linear" x1="48.1902" y1="38.7978" x2="69.2635" y2="64.3667" gradientUnits="userSpaceOnUse">
<stop stop-color="#EBEFF0"/>
<stop offset="1" stop-color="#E3E5E4"/>
</linearGradient>
<linearGradient id="paint9_linear" x1="53.2087" y1="45.6812" x2="77.5907" y2="86.7785" gradientUnits="userSpaceOnUse">
<stop stop-color="#FF637B"/>
<stop offset="1" stop-color="#F90217"/>
</linearGradient>
</defs>
</svg>
