<?xml version="1.0" encoding="utf-8"?>
<!-- Svg Vector Icons : http://www.onlinewebfonts.com/icon -->
<!DOCTYPE svg PUBLIC "-//W3C//DTD SVG 1.1//EN" "http://www.w3.org/Graphics/SVG/1.1/DTD/svg11.dtd">
<svg version="1.1" xmlns="http://www.w3.org/2000/svg" xmlns:xlink="http://www.w3.org/1999/xlink" x="0px" y="0px" viewBox="0 0 1000 1000" enable-background="new 0 0 1000 1000" xml:space="preserve">
<metadata> Svg Vector Icons : http://www.onlinewebfonts.com/icon </metadata>
<g><path d="M970.4,436.4L835.3,325.6c-26.1-21.4-47.4-11.3-47.4,22.5v69h-57.1V70.6c0-33.9-27.5-61.3-61.3-61.3H71.3c-28.3,0-51.9,19.3-59,45.4L10,54.2v16.4v797.4v54.8l378.5,67.9v-61.3h280.9c33.9,0,61.3-27.5,61.3-61.3V533.6h57.1v69c0,33.7,21.4,43.8,47.5,22.5l135.2-110.8C996.5,492.8,996.5,457.8,970.4,436.4z M684.8,822c0,33.9-27.5,61.3-61.3,61.3H388.5V122.1l-307-55.1c10.1-7.3,22.4-11.8,35.9-11.8h506.1c33.9,0,61.3,27.5,61.3,61.3v300.5H548.9c-16.9,0-30.7,13.8-30.7,30.7v55.2c0,16.9,13.8,30.7,30.7,30.7h135.8L684.8,822L684.8,822z"/></g>
</svg>